<svg id="Layer_1" data-name="Layer 1" xmlns="http://www.w3.org/2000/svg" xmlns:xlink="http://www.w3.org/1999/xlink" viewBox="0 0 142.04 141.96"><defs><style>.cls-1{fill:none;}.cls-2{fill:#474747;}.cls-3{clip-path:url(#clip-path);}.cls-4{fill:#ff9100;}.cls-5,.cls-8{font-size:72.02px;font-family:AvenirNext-Bold, Avenir Next;font-weight:700;}.cls-5,.cls-7{fill:#99541c;}.cls-6{letter-spacing:-0.01em;}.cls-8{fill:#fff;}</style><clipPath id="clip-path"><circle class="cls-1" cx="68.5" cy="68.62" r="67.96"/></clipPath></defs><title>logo</title><circle class="cls-2" cx="73.62" cy="74" r="67.96"/><g class="cls-3"><circle class="cls-4" cx="68.5" cy="68.62" r="67.96"/><text class="cls-5" transform="translate(132.85 194.75) scale(0.99 1)">J<tspan class="cls-6" x="38.1" y="0">K</tspan></text><path class="cls-7" d="M162.79,181.59a17.31,17.31,0,0,1-2.5,6.09,14.07,14.07,0,0,1-5.06,4.57,17.18,17.18,0,0,1-8.38,1.8,16.83,16.83,0,0,1-10.7-3.35,16,16,0,0,1-5.7-8.61l10.77-3.67a6.38,6.38,0,0,0,1.82,3.24,4.59,4.59,0,0,0,3.25,1.22q3,0,4-2.09a13.18,13.18,0,0,0,1-5.47V141.69h12.26v33.56A31.68,31.68,0,0,1,162.79,181.59Z"/><path class="cls-7" d="M162.07,180.9a17.31,17.31,0,0,1-2.5,6.09,14.07,14.07,0,0,1-5.06,4.57,17.18,17.18,0,0,1-8.38,1.8,16.83,16.83,0,0,1-10.7-3.35,16,16,0,0,1-5.7-8.61l10.77-3.67a6.38,6.38,0,0,0,1.82,3.24,4.59,4.59,0,0,0,3.25,1.22q3,0,4-2.09a13.18,13.18,0,0,0,1-5.47V141h12.26v33.56A31.68,31.68,0,0,1,162.07,180.9Z"/><path class="cls-7" d="M161.34,180.21a17.31,17.31,0,0,1-2.5,6.09,14.07,14.07,0,0,1-5.06,4.57,17.18,17.18,0,0,1-8.38,1.8,16.83,16.83,0,0,1-10.7-3.35,16,16,0,0,1-5.7-8.61L139.77,177a6.38,6.38,0,0,0,1.82,3.24,4.59,4.59,0,0,0,3.25,1.22q3,0,4-2.09a13.18,13.18,0,0,0,1-5.47V140.32H162v33.56A31.68,31.68,0,0,1,161.34,180.21Z"/><path class="cls-7" d="M160.61,179.52a17.31,17.31,0,0,1-2.5,6.09,14.07,14.07,0,0,1-5.06,4.57,17.18,17.18,0,0,1-8.38,1.8,16.83,16.83,0,0,1-10.7-3.35,16,16,0,0,1-5.7-8.61L139,176.35a6.38,6.38,0,0,0,1.82,3.24,4.59,4.59,0,0,0,3.25,1.22q3,0,4-2.09a13.18,13.18,0,0,0,1-5.47V139.63h12.26v33.56A31.68,31.68,0,0,1,160.61,179.52Z"/><path class="cls-7" d="M159.89,178.83a17.31,17.31,0,0,1-2.5,6.09,14.07,14.07,0,0,1-5.06,4.57,17.18,17.18,0,0,1-8.38,1.8,16.83,16.83,0,0,1-10.7-3.35,16,16,0,0,1-5.7-8.61l10.77-3.67a6.38,6.38,0,0,0,1.82,3.24,4.59,4.59,0,0,0,3.25,1.22q3,0,4-2.09a13.18,13.18,0,0,0,1-5.47V138.94h12.26V172.5A31.68,31.68,0,0,1,159.89,178.83Z"/><path class="cls-7" d="M159.16,178.14a17.31,17.31,0,0,1-2.5,6.09,14.07,14.07,0,0,1-5.06,4.57,17.18,17.18,0,0,1-8.38,1.8,16.83,16.83,0,0,1-10.7-3.35,16,16,0,0,1-5.7-8.61L137.59,175a6.38,6.38,0,0,0,1.82,3.24,4.59,4.59,0,0,0,3.25,1.22q3,0,4-2.09a13.18,13.18,0,0,0,1-5.47V138.25h12.26v33.56A31.68,31.68,0,0,1,159.16,178.14Z"/><path class="cls-7" d="M158.43,177.45a17.31,17.31,0,0,1-2.5,6.09,14.07,14.07,0,0,1-5.06,4.57,17.18,17.18,0,0,1-8.38,1.8,16.83,16.83,0,0,1-10.7-3.35,16,16,0,0,1-5.7-8.61l10.77-3.67a6.38,6.38,0,0,0,1.82,3.24,4.59,4.59,0,0,0,3.25,1.22q3,0,4-2.09a13.18,13.18,0,0,0,1-5.47V137.56h12.26v33.56A31.68,31.68,0,0,1,158.43,177.45Z"/><path class="cls-7" d="M157.7,176.77a17.31,17.31,0,0,1-2.5,6.09,14.07,14.07,0,0,1-5.06,4.57,17.18,17.18,0,0,1-8.38,1.8,16.83,16.83,0,0,1-10.7-3.35,16,16,0,0,1-5.7-8.61l10.77-3.67a6.38,6.38,0,0,0,1.82,3.24,4.59,4.59,0,0,0,3.25,1.22q3,0,4-2.09a13.18,13.18,0,0,0,1-5.47V136.87h12.26v33.56A31.68,31.68,0,0,1,157.7,176.77Z"/><path class="cls-7" d="M157,176.08a17.31,17.31,0,0,1-2.5,6.09,14.07,14.07,0,0,1-5.06,4.57,17.18,17.18,0,0,1-8.38,1.8,16.83,16.83,0,0,1-10.7-3.35,16,16,0,0,1-5.7-8.61l10.77-3.67a6.38,6.38,0,0,0,1.82,3.24,4.59,4.59,0,0,0,3.25,1.22q3,0,4-2.09a13.18,13.18,0,0,0,1-5.47V136.18h12.26v33.56A31.68,31.68,0,0,1,157,176.08Z"/><path class="cls-7" d="M156.25,175.39a17.31,17.31,0,0,1-2.5,6.09,14.07,14.07,0,0,1-5.06,4.57,17.18,17.18,0,0,1-8.38,1.8,16.83,16.83,0,0,1-10.7-3.35,16,16,0,0,1-5.7-8.61l10.77-3.67a6.38,6.38,0,0,0,1.82,3.24,4.59,4.59,0,0,0,3.25,1.22q3,0,4-2.09a13.18,13.18,0,0,0,1-5.47V135.49h12.26V169A31.68,31.68,0,0,1,156.25,175.39Z"/><path class="cls-7" d="M155.52,174.7a17.31,17.31,0,0,1-2.5,6.09,14.07,14.07,0,0,1-5.06,4.57,17.18,17.18,0,0,1-8.38,1.8,16.83,16.83,0,0,1-10.7-3.35,16,16,0,0,1-5.7-8.61L134,171.53a6.38,6.38,0,0,0,1.82,3.24A4.59,4.59,0,0,0,139,176q3,0,4-2.09a13.18,13.18,0,0,0,1-5.47V134.8H156.2v33.56A31.68,31.68,0,0,1,155.52,174.7Z"/><path class="cls-7" d="M154.8,174a17.31,17.31,0,0,1-2.5,6.09,14.07,14.07,0,0,1-5.06,4.57,17.18,17.18,0,0,1-8.38,1.8,16.83,16.83,0,0,1-10.7-3.35,16,16,0,0,1-5.7-8.61l10.77-3.67a6.38,6.38,0,0,0,1.82,3.24,4.59,4.59,0,0,0,3.25,1.22q3,0,4-2.09a13.18,13.18,0,0,0,1-5.47V134.11h12.26v33.56A31.68,31.68,0,0,1,154.8,174Z"/><path class="cls-7" d="M154.07,173.32a17.31,17.31,0,0,1-2.5,6.09,14.07,14.07,0,0,1-5.06,4.57,17.18,17.18,0,0,1-8.38,1.8,16.83,16.83,0,0,1-10.7-3.35,16,16,0,0,1-5.7-8.61l10.77-3.67a6.38,6.38,0,0,0,1.82,3.24,4.59,4.59,0,0,0,3.25,1.22q3,0,4-2.09a13.18,13.18,0,0,0,1-5.47V133.42h12.26V167A31.68,31.68,0,0,1,154.07,173.32Z"/><path class="cls-7" d="M153.34,172.63a17.31,17.31,0,0,1-2.5,6.09,14.07,14.07,0,0,1-5.06,4.57,17.18,17.18,0,0,1-8.38,1.8,16.83,16.83,0,0,1-10.7-3.35,16,16,0,0,1-5.7-8.61l10.77-3.67a6.38,6.38,0,0,0,1.82,3.24,4.59,4.59,0,0,0,3.25,1.22q3,0,4-2.09a13.18,13.18,0,0,0,1-5.47V132.73H154v33.56A31.68,31.68,0,0,1,153.34,172.63Z"/><path class="cls-7" d="M152.61,171.94a17.31,17.31,0,0,1-2.5,6.09,14.07,14.07,0,0,1-5.06,4.57,17.18,17.18,0,0,1-8.38,1.8A16.83,16.83,0,0,1,126,181a16,16,0,0,1-5.7-8.61L131,168.77a6.38,6.38,0,0,0,1.82,3.24,4.59,4.59,0,0,0,3.25,1.22q3,0,4-2.09a13.18,13.18,0,0,0,1-5.47V132h12.26V165.6A31.68,31.68,0,0,1,152.61,171.94Z"/><path class="cls-7" d="M151.89,171.25a17.31,17.31,0,0,1-2.5,6.09,14.07,14.07,0,0,1-5.06,4.57,17.18,17.18,0,0,1-8.38,1.8,16.83,16.83,0,0,1-10.7-3.35,16,16,0,0,1-5.7-8.61l10.77-3.67a6.38,6.38,0,0,0,1.82,3.24,4.59,4.59,0,0,0,3.25,1.22q3,0,4-2.09a13.18,13.18,0,0,0,1-5.47V131.35h12.26v33.56A31.68,31.68,0,0,1,151.89,171.25Z"/><path class="cls-7" d="M151.16,170.56a17.31,17.31,0,0,1-2.5,6.09,14.07,14.07,0,0,1-5.06,4.57,17.18,17.18,0,0,1-8.38,1.8,16.83,16.83,0,0,1-10.7-3.35,16,16,0,0,1-5.7-8.61l10.77-3.67a6.38,6.38,0,0,0,1.82,3.24,4.59,4.59,0,0,0,3.24,1.22q3,0,4-2.09a13.18,13.18,0,0,0,1-5.47V130.66h12.26v33.56A31.68,31.68,0,0,1,151.16,170.56Z"/><path class="cls-7" d="M150.43,169.87a17.31,17.31,0,0,1-2.5,6.09,14.07,14.07,0,0,1-5.06,4.57,17.18,17.18,0,0,1-8.38,1.8A16.83,16.83,0,0,1,123.8,179a16,16,0,0,1-5.7-8.61l10.77-3.67a6.38,6.38,0,0,0,1.82,3.24,4.59,4.59,0,0,0,3.24,1.22q3,0,4-2.09a13.18,13.18,0,0,0,1-5.47V130h12.26v33.56A31.68,31.68,0,0,1,150.43,169.87Z"/><path class="cls-7" d="M149.71,169.18a17.31,17.31,0,0,1-2.5,6.09,14.07,14.07,0,0,1-5.06,4.57,17.18,17.18,0,0,1-8.38,1.8,16.83,16.83,0,0,1-10.7-3.35,16,16,0,0,1-5.7-8.61L128.14,166a6.38,6.38,0,0,0,1.82,3.24,4.59,4.59,0,0,0,3.24,1.22q3,0,4-2.09a13.18,13.18,0,0,0,1-5.47V129.28h12.26v33.56A31.67,31.67,0,0,1,149.71,169.18Z"/><path class="cls-7" d="M149,168.49a17.31,17.31,0,0,1-2.5,6.09,14.07,14.07,0,0,1-5.06,4.57A17.18,17.18,0,0,1,133,181a16.83,16.83,0,0,1-10.7-3.35,16,16,0,0,1-5.7-8.61l10.77-3.67a6.38,6.38,0,0,0,1.82,3.24,4.59,4.59,0,0,0,3.24,1.22q3,0,4-2.09a13.18,13.18,0,0,0,1-5.47V128.59h12.26v33.56A31.67,31.67,0,0,1,149,168.49Z"/><path class="cls-7" d="M148.25,167.8a17.31,17.31,0,0,1-2.5,6.09,14.07,14.07,0,0,1-5.06,4.57,17.18,17.18,0,0,1-8.38,1.8,16.83,16.83,0,0,1-10.7-3.35,16,16,0,0,1-5.7-8.61l10.77-3.67a6.38,6.38,0,0,0,1.82,3.24,4.59,4.59,0,0,0,3.24,1.22q3,0,4-2.09a13.18,13.18,0,0,0,1-5.47V127.9h12.26v33.56A31.67,31.67,0,0,1,148.25,167.8Z"/><path class="cls-7" d="M147.52,167.11a17.31,17.31,0,0,1-2.5,6.09,14.07,14.07,0,0,1-5.06,4.57,17.18,17.18,0,0,1-8.38,1.8,16.83,16.83,0,0,1-10.7-3.35,16,16,0,0,1-5.7-8.61L126,163.94a6.38,6.38,0,0,0,1.82,3.24,4.59,4.59,0,0,0,3.24,1.22q3,0,4-2.09a13.18,13.18,0,0,0,1-5.47V127.22H148.2v33.56A31.67,31.67,0,0,1,147.52,167.11Z"/><path class="cls-7" d="M146.8,166.42a17.31,17.31,0,0,1-2.5,6.09,14.07,14.07,0,0,1-5.06,4.57,17.18,17.18,0,0,1-8.38,1.8,16.83,16.83,0,0,1-10.7-3.35,16,16,0,0,1-5.7-8.61l10.77-3.67A6.38,6.38,0,0,0,127,166.5a4.59,4.59,0,0,0,3.24,1.22q3,0,4-2.09a13.18,13.18,0,0,0,1-5.47V126.53h12.26v33.56A31.67,31.67,0,0,1,146.8,166.42Z"/><path class="cls-7" d="M146.07,165.73a17.31,17.31,0,0,1-2.5,6.09,14.07,14.07,0,0,1-5.06,4.57,17.18,17.18,0,0,1-8.38,1.8,16.83,16.83,0,0,1-10.7-3.35,16,16,0,0,1-5.7-8.61l10.77-3.67a6.38,6.38,0,0,0,1.82,3.24,4.59,4.59,0,0,0,3.24,1.22q3,0,4-2.09a13.18,13.18,0,0,0,1-5.47V125.84h12.26V159.4A31.67,31.67,0,0,1,146.07,165.73Z"/><path class="cls-7" d="M145.34,165a17.31,17.31,0,0,1-2.5,6.09,14.07,14.07,0,0,1-5.06,4.57,17.18,17.18,0,0,1-8.38,1.8,16.83,16.83,0,0,1-10.7-3.35,16,16,0,0,1-5.7-8.61l10.77-3.67a6.38,6.38,0,0,0,1.82,3.24,4.59,4.59,0,0,0,3.24,1.22q3,0,4-2.09a13.18,13.18,0,0,0,1-5.47V125.15H146v33.56A31.67,31.67,0,0,1,145.34,165Z"/><path class="cls-7" d="M144.62,164.35a17.31,17.31,0,0,1-2.5,6.09,14.07,14.07,0,0,1-5.06,4.57,17.18,17.18,0,0,1-8.38,1.8,16.83,16.83,0,0,1-10.7-3.35,16,16,0,0,1-5.7-8.61L123,161.19a6.38,6.38,0,0,0,1.82,3.24,4.59,4.59,0,0,0,3.24,1.22q3,0,4-2.09a13.18,13.18,0,0,0,1-5.47V124.46h12.26V158A31.67,31.67,0,0,1,144.62,164.35Z"/><path class="cls-7" d="M143.89,163.67a17.31,17.31,0,0,1-2.5,6.09,14.07,14.07,0,0,1-5.06,4.57,17.18,17.18,0,0,1-8.38,1.8,16.83,16.83,0,0,1-10.7-3.35,16,16,0,0,1-5.7-8.61l10.77-3.67a6.38,6.38,0,0,0,1.82,3.24,4.59,4.59,0,0,0,3.24,1.22q3,0,4-2.09a13.18,13.18,0,0,0,1-5.47V123.77h12.26v33.56A31.67,31.67,0,0,1,143.89,163.67Z"/><path class="cls-7" d="M143.16,163a17.31,17.31,0,0,1-2.5,6.09,14.07,14.07,0,0,1-5.06,4.57,17.18,17.18,0,0,1-8.38,1.8,16.83,16.83,0,0,1-10.7-3.35,16,16,0,0,1-5.7-8.61l10.77-3.67a6.38,6.38,0,0,0,1.82,3.24,4.59,4.59,0,0,0,3.24,1.22q3,0,4-2.09a13.18,13.18,0,0,0,1-5.47V123.08h12.26v33.56A31.67,31.67,0,0,1,143.16,163Z"/><path class="cls-7" d="M142.43,162.29a17.31,17.31,0,0,1-2.5,6.09,14.07,14.07,0,0,1-5.06,4.57,17.18,17.18,0,0,1-8.38,1.8,16.83,16.83,0,0,1-10.7-3.35,16,16,0,0,1-5.7-8.61l10.77-3.67a6.38,6.38,0,0,0,1.82,3.24,4.59,4.59,0,0,0,3.24,1.22q3,0,4-2.09a13.18,13.18,0,0,0,1-5.47V122.39h12.26v33.56A31.67,31.67,0,0,1,142.43,162.29Z"/><path class="cls-7" d="M141.71,161.6a17.31,17.31,0,0,1-2.5,6.09,14.07,14.07,0,0,1-5.06,4.57,17.18,17.18,0,0,1-8.38,1.8,16.83,16.83,0,0,1-10.7-3.35,16,16,0,0,1-5.7-8.61l10.77-3.67a6.38,6.38,0,0,0,1.82,3.24,4.59,4.59,0,0,0,3.24,1.22q3,0,4-2.09a13.18,13.18,0,0,0,1-5.47V121.7h12.26v33.56A31.67,31.67,0,0,1,141.71,161.6Z"/><path class="cls-7" d="M141,160.91a17.31,17.31,0,0,1-2.5,6.09,14.07,14.07,0,0,1-5.06,4.57,17.18,17.18,0,0,1-8.38,1.8,16.83,16.83,0,0,1-10.7-3.35,16,16,0,0,1-5.7-8.61l10.77-3.67a6.38,6.38,0,0,0,1.82,3.24,4.59,4.59,0,0,0,3.24,1.22q3,0,4-2.09a13.18,13.18,0,0,0,1-5.47V121h12.26v33.56A31.67,31.67,0,0,1,141,160.91Z"/><path class="cls-7" d="M140.25,160.22a17.31,17.31,0,0,1-2.5,6.09,14.07,14.07,0,0,1-5.06,4.57,17.18,17.18,0,0,1-8.38,1.8,16.83,16.83,0,0,1-10.7-3.35,16,16,0,0,1-5.7-8.61L118.68,157a6.38,6.38,0,0,0,1.82,3.24,4.59,4.59,0,0,0,3.24,1.22q3,0,4-2.09a13.18,13.18,0,0,0,1-5.47V120.32h12.26v33.56A31.67,31.67,0,0,1,140.25,160.22Z"/><path class="cls-7" d="M139.53,159.53a17.31,17.31,0,0,1-2.5,6.09,14.07,14.07,0,0,1-5.06,4.57,17.18,17.18,0,0,1-8.38,1.8,16.83,16.83,0,0,1-10.7-3.35,16,16,0,0,1-5.7-8.61L118,156.36a6.38,6.38,0,0,0,1.82,3.24,4.59,4.59,0,0,0,3.24,1.22q3,0,4-2.09a13.18,13.18,0,0,0,1-5.47V119.63H140.2v33.56A31.67,31.67,0,0,1,139.53,159.53Z"/><path class="cls-7" d="M138.8,158.84a17.31,17.31,0,0,1-2.5,6.09,14.07,14.07,0,0,1-5.06,4.57,17.18,17.18,0,0,1-8.38,1.8,16.83,16.83,0,0,1-10.7-3.35,16,16,0,0,1-5.7-8.61l10.77-3.67a6.38,6.38,0,0,0,1.82,3.24,4.59,4.59,0,0,0,3.24,1.22q3,0,4-2.09a13.18,13.18,0,0,0,1-5.47V118.94h12.26V152.5A31.67,31.67,0,0,1,138.8,158.84Z"/><path class="cls-7" d="M138.07,158.15a17.31,17.31,0,0,1-2.5,6.09,14.07,14.07,0,0,1-5.06,4.57,17.18,17.18,0,0,1-8.38,1.8,16.83,16.83,0,0,1-10.7-3.35,16,16,0,0,1-5.7-8.61L116.5,155a6.38,6.38,0,0,0,1.82,3.24,4.59,4.59,0,0,0,3.24,1.22q3,0,4-2.09a13.18,13.18,0,0,0,1-5.47V118.25h12.26v33.56A31.67,31.67,0,0,1,138.07,158.15Z"/><path class="cls-7" d="M137.35,157.46a17.31,17.31,0,0,1-2.5,6.09,14.07,14.07,0,0,1-5.06,4.57,17.18,17.18,0,0,1-8.38,1.8,16.83,16.83,0,0,1-10.7-3.35A16,16,0,0,1,105,158l10.77-3.67a6.38,6.38,0,0,0,1.82,3.24,4.59,4.59,0,0,0,3.24,1.22q3,0,4-2.09a13.18,13.18,0,0,0,1-5.47V117.56H138v33.56A31.67,31.67,0,0,1,137.35,157.46Z"/><path class="cls-7" d="M136.62,156.77a17.31,17.31,0,0,1-2.5,6.09,14.07,14.07,0,0,1-5.06,4.57,17.18,17.18,0,0,1-8.38,1.8,16.83,16.83,0,0,1-10.7-3.35,16,16,0,0,1-5.7-8.61L115,153.6a6.38,6.38,0,0,0,1.82,3.24,4.59,4.59,0,0,0,3.24,1.22q3,0,4-2.09a13.18,13.18,0,0,0,1-5.47V116.87H137.3v33.56A31.67,31.67,0,0,1,136.62,156.77Z"/><path class="cls-7" d="M135.89,156.08a17.32,17.32,0,0,1-2.5,6.09,14.07,14.07,0,0,1-5.06,4.57,17.18,17.18,0,0,1-8.38,1.8,16.83,16.83,0,0,1-10.7-3.35,16,16,0,0,1-5.7-8.61l10.77-3.67a6.38,6.38,0,0,0,1.82,3.24,4.59,4.59,0,0,0,3.24,1.22q3,0,4-2.09a13.18,13.18,0,0,0,1-5.47V116.18h12.26v33.56A31.67,31.67,0,0,1,135.89,156.08Z"/><path class="cls-7" d="M135.16,155.39a17.32,17.32,0,0,1-2.5,6.09,14.07,14.07,0,0,1-5.06,4.57,17.18,17.18,0,0,1-8.38,1.8,16.83,16.83,0,0,1-10.7-3.35,16,16,0,0,1-5.7-8.61l10.77-3.67a6.38,6.38,0,0,0,1.82,3.24,4.59,4.59,0,0,0,3.24,1.22q3,0,4-2.09a13.18,13.18,0,0,0,1-5.47V115.49h12.26v33.56A31.67,31.67,0,0,1,135.16,155.39Z"/><path class="cls-7" d="M134.44,154.7a17.32,17.32,0,0,1-2.5,6.09,14.07,14.07,0,0,1-5.06,4.57,17.18,17.18,0,0,1-8.38,1.8,16.83,16.83,0,0,1-10.7-3.35,16,16,0,0,1-5.7-8.61l10.77-3.67a6.38,6.38,0,0,0,1.82,3.24,4.59,4.59,0,0,0,3.24,1.22q3,0,4-2.09a13.18,13.18,0,0,0,1-5.47V114.8h12.26v33.56A31.67,31.67,0,0,1,134.44,154.7Z"/><path class="cls-7" d="M133.71,154a17.32,17.32,0,0,1-2.5,6.09,14.07,14.07,0,0,1-5.06,4.57,17.18,17.18,0,0,1-8.38,1.8,16.83,16.83,0,0,1-10.7-3.35,16,16,0,0,1-5.7-8.61l10.77-3.67a6.38,6.38,0,0,0,1.82,3.24,4.59,4.59,0,0,0,3.24,1.22q3,0,4-2.09a13.18,13.18,0,0,0,1-5.47V114.11h12.26v33.56A31.67,31.67,0,0,1,133.71,154Z"/><path class="cls-7" d="M133,153.32a17.32,17.32,0,0,1-2.5,6.09,14.07,14.07,0,0,1-5.06,4.57,17.18,17.18,0,0,1-8.38,1.8,16.83,16.83,0,0,1-10.7-3.35,16,16,0,0,1-5.7-8.61l10.77-3.67a6.38,6.38,0,0,0,1.82,3.24,4.59,4.59,0,0,0,3.24,1.22q3,0,4-2.09a13.18,13.18,0,0,0,1-5.47V113.43h12.26V147A31.67,31.67,0,0,1,133,153.32Z"/><path class="cls-7" d="M132.26,152.63a17.32,17.32,0,0,1-2.5,6.09,14.07,14.07,0,0,1-5.06,4.57,17.18,17.18,0,0,1-8.38,1.8,16.83,16.83,0,0,1-10.7-3.35,16,16,0,0,1-5.7-8.61l10.77-3.67a6.38,6.38,0,0,0,1.82,3.24,4.59,4.59,0,0,0,3.24,1.22q3,0,4-2.09a13.18,13.18,0,0,0,1-5.47V112.74h12.26V146.3A31.67,31.67,0,0,1,132.26,152.63Z"/><path class="cls-7" d="M131.53,151.94A17.32,17.32,0,0,1,129,158,14.07,14.07,0,0,1,124,162.6a17.18,17.18,0,0,1-8.38,1.8,16.83,16.83,0,0,1-10.7-3.35,16,16,0,0,1-5.7-8.61L110,148.77a6.38,6.38,0,0,0,1.82,3.24,4.59,4.59,0,0,0,3.24,1.22q3,0,4-2.09a13.18,13.18,0,0,0,1-5.47V112h12.26v33.56A31.67,31.67,0,0,1,131.53,151.94Z"/><path class="cls-7" d="M130.8,151.25a17.32,17.32,0,0,1-2.5,6.09,14.07,14.07,0,0,1-5.06,4.57,17.18,17.18,0,0,1-8.38,1.8,16.83,16.83,0,0,1-10.7-3.35,16,16,0,0,1-5.7-8.61l10.77-3.67a6.38,6.38,0,0,0,1.82,3.24,4.59,4.59,0,0,0,3.24,1.22q3,0,4-2.09a13.18,13.18,0,0,0,1-5.47V111.36h12.26v33.56A31.67,31.67,0,0,1,130.8,151.25Z"/><polygon class="cls-7" points="172.41 162.34 153.65 138.87 153.51 138.87 153.51 162.34 141.6 162.34 141.6 111.36 153.51 111.36 153.51 132.1 153.72 132.1 171.76 111.36 187.03 111.36 165.28 134.83 188.31 162.34 172.41 162.34"/><path class="cls-7" d="M130.07,150.56a17.32,17.32,0,0,1-2.5,6.09,14.07,14.07,0,0,1-5.06,4.57,17.18,17.18,0,0,1-8.38,1.8,16.83,16.83,0,0,1-10.7-3.35,16,16,0,0,1-5.7-8.61l10.77-3.67a6.38,6.38,0,0,0,1.82,3.24,4.59,4.59,0,0,0,3.24,1.22q3,0,4-2.09a13.18,13.18,0,0,0,1-5.47V110.67h12.26v33.56A31.67,31.67,0,0,1,130.07,150.56Z"/><polygon class="cls-7" points="171.68 161.66 152.93 138.18 152.78 138.18 152.78 161.66 140.88 161.66 140.88 110.67 152.78 110.67 152.78 131.41 153 131.41 171.04 110.67 186.3 110.67 164.55 134.15 187.58 161.66 171.68 161.66"/><path class="cls-7" d="M129.35,149.88a17.32,17.32,0,0,1-2.5,6.09,14.07,14.07,0,0,1-5.06,4.57,17.18,17.18,0,0,1-8.38,1.8,16.83,16.83,0,0,1-10.7-3.35,16,16,0,0,1-5.7-8.61l10.77-3.67a6.38,6.38,0,0,0,1.82,3.24,4.59,4.59,0,0,0,3.24,1.22q3,0,4-2.09a13.18,13.18,0,0,0,1-5.47V110H130v33.56A31.67,31.67,0,0,1,129.35,149.88Z"/><polygon class="cls-7" points="170.95 160.97 152.2 137.49 152.06 137.49 152.06 160.97 140.15 160.97 140.15 109.98 152.06 109.98 152.06 130.72 152.27 130.72 170.31 109.98 185.57 109.98 163.82 133.46 186.85 160.97 170.95 160.97"/><path class="cls-7" d="M128.62,149.19a17.32,17.32,0,0,1-2.5,6.09,14.07,14.07,0,0,1-5.06,4.57,17.18,17.18,0,0,1-8.38,1.8A16.83,16.83,0,0,1,102,158.3a16,16,0,0,1-5.7-8.61L107,146a6.38,6.38,0,0,0,1.82,3.24,4.59,4.59,0,0,0,3.24,1.22q3,0,4-2.09a13.18,13.18,0,0,0,1-5.47V109.29H129.3v33.56A31.67,31.67,0,0,1,128.62,149.19Z"/><polygon class="cls-7" points="170.22 160.28 151.47 136.8 151.33 136.8 151.33 160.28 139.42 160.28 139.42 109.29 151.33 109.29 151.33 130.03 151.54 130.03 169.58 109.29 184.84 109.29 163.1 132.77 186.13 160.28 170.22 160.28"/><path class="cls-7" d="M127.89,148.5a17.32,17.32,0,0,1-2.5,6.09,14.07,14.07,0,0,1-5.06,4.57A17.18,17.18,0,0,1,112,161a16.83,16.83,0,0,1-10.7-3.35,16,16,0,0,1-5.7-8.61l10.77-3.67a6.38,6.38,0,0,0,1.82,3.24,4.59,4.59,0,0,0,3.24,1.22q3,0,4-2.09a13.18,13.18,0,0,0,1-5.47V108.6h12.26v33.56A31.67,31.67,0,0,1,127.89,148.5Z"/><polygon class="cls-7" points="169.5 159.59 150.75 136.11 150.6 136.11 150.6 159.59 138.69 159.59 138.69 108.6 150.6 108.6 150.6 129.34 150.82 129.34 168.86 108.6 184.12 108.6 162.37 132.08 185.4 159.59 169.5 159.59"/><path class="cls-7" d="M127.17,147.81a17.32,17.32,0,0,1-2.5,6.09,14.07,14.07,0,0,1-5.06,4.57,17.18,17.18,0,0,1-8.38,1.8,16.83,16.83,0,0,1-10.7-3.35,16,16,0,0,1-5.7-8.61l10.77-3.67a6.38,6.38,0,0,0,1.82,3.24,4.59,4.59,0,0,0,3.24,1.22q3,0,4-2.09a13.18,13.18,0,0,0,1-5.47V107.91h12.26v33.56A31.67,31.67,0,0,1,127.17,147.81Z"/><polygon class="cls-7" points="168.77 158.9 150.02 135.42 149.88 135.42 149.88 158.9 137.97 158.9 137.97 107.91 149.88 107.91 149.88 128.65 150.09 128.65 168.13 107.91 183.39 107.91 161.64 131.39 184.67 158.9 168.77 158.9"/><path class="cls-7" d="M126.44,147.12a17.32,17.32,0,0,1-2.5,6.09,14.07,14.07,0,0,1-5.06,4.57,17.18,17.18,0,0,1-8.38,1.8,16.83,16.83,0,0,1-10.7-3.35,16,16,0,0,1-5.7-8.61l10.77-3.67a6.38,6.38,0,0,0,1.82,3.24,4.59,4.59,0,0,0,3.24,1.22q3,0,4-2.09a13.18,13.18,0,0,0,1-5.47V107.22h12.26v33.56A31.67,31.67,0,0,1,126.44,147.12Z"/><polygon class="cls-7" points="168.04 158.21 149.29 134.73 149.15 134.73 149.15 158.21 137.24 158.21 137.24 107.22 149.15 107.22 149.15 127.96 149.36 127.96 167.4 107.22 182.66 107.22 160.91 130.7 183.94 158.21 168.04 158.21"/><path class="cls-7" d="M125.71,146.43a17.32,17.32,0,0,1-2.5,6.09,14.07,14.07,0,0,1-5.06,4.57,17.18,17.18,0,0,1-8.38,1.8,16.83,16.83,0,0,1-10.7-3.35,16,16,0,0,1-5.7-8.61l10.77-3.67A6.38,6.38,0,0,0,106,146.5a4.59,4.59,0,0,0,3.24,1.22q3,0,4-2.09a13.18,13.18,0,0,0,1-5.47V106.53h12.26v33.56A31.67,31.67,0,0,1,125.71,146.43Z"/><polygon class="cls-7" points="167.32 157.52 148.56 134.04 148.42 134.04 148.42 157.52 136.51 157.52 136.51 106.53 148.42 106.53 148.42 127.27 148.63 127.27 166.68 106.53 181.94 106.53 160.19 130.01 183.22 157.52 167.32 157.52"/><path class="cls-7" d="M125,145.74a17.32,17.32,0,0,1-2.5,6.09,14.07,14.07,0,0,1-5.06,4.57,17.18,17.18,0,0,1-8.38,1.8,16.83,16.83,0,0,1-10.7-3.35,16,16,0,0,1-5.7-8.61l10.77-3.67a6.38,6.38,0,0,0,1.82,3.24,4.59,4.59,0,0,0,3.24,1.22q3,0,4-2.09a13.18,13.18,0,0,0,1-5.47V105.84h12.26V139.4A31.67,31.67,0,0,1,125,145.74Z"/><polygon class="cls-7" points="166.59 156.83 147.84 133.35 147.69 133.35 147.69 156.83 135.79 156.83 135.79 105.84 147.69 105.84 147.69 126.58 147.91 126.58 165.95 105.84 181.21 105.84 159.46 129.32 182.49 156.83 166.59 156.83"/><path class="cls-7" d="M124.26,145a17.32,17.32,0,0,1-2.5,6.09,14.07,14.07,0,0,1-5.06,4.57,17.18,17.18,0,0,1-8.38,1.8,16.83,16.83,0,0,1-10.7-3.35,16,16,0,0,1-5.7-8.61l10.77-3.67a6.38,6.38,0,0,0,1.82,3.24,4.59,4.59,0,0,0,3.24,1.22q3,0,4-2.09a13.19,13.19,0,0,0,1-5.47V105.15h12.26v33.56A31.67,31.67,0,0,1,124.26,145Z"/><polygon class="cls-7" points="165.86 156.14 147.11 132.66 146.97 132.66 146.97 156.14 135.06 156.14 135.06 105.15 146.97 105.15 146.97 125.89 147.18 125.89 165.22 105.15 180.48 105.15 158.73 128.63 181.76 156.14 165.86 156.14"/><path class="cls-7" d="M123.53,144.36a17.32,17.32,0,0,1-2.5,6.09A14.07,14.07,0,0,1,116,155a17.18,17.18,0,0,1-8.38,1.8,16.83,16.83,0,0,1-10.7-3.35,16,16,0,0,1-5.7-8.61L102,141.19a6.38,6.38,0,0,0,1.82,3.24,4.59,4.59,0,0,0,3.24,1.22q3,0,4-2.09a13.19,13.19,0,0,0,1-5.47V104.46h12.26V138A31.67,31.67,0,0,1,123.53,144.36Z"/><polygon class="cls-7" points="165.14 155.45 146.38 131.97 146.24 131.97 146.24 155.45 134.33 155.45 134.33 104.46 146.24 104.46 146.24 125.2 146.45 125.2 164.49 104.46 179.75 104.46 158.01 127.94 181.04 155.45 165.14 155.45"/><path class="cls-7" d="M122.8,143.67a17.32,17.32,0,0,1-2.5,6.09,14.07,14.07,0,0,1-5.06,4.57,17.18,17.18,0,0,1-8.38,1.8,16.83,16.83,0,0,1-10.7-3.35,16,16,0,0,1-5.7-8.61l10.77-3.67a6.38,6.38,0,0,0,1.82,3.24A4.59,4.59,0,0,0,106.3,145q3,0,4-2.09a13.19,13.19,0,0,0,1-5.47V103.77h12.26v33.56A31.67,31.67,0,0,1,122.8,143.67Z"/><polygon class="cls-7" points="164.41 154.76 145.66 131.28 145.51 131.28 145.51 154.76 133.6 154.76 133.6 103.77 145.51 103.77 145.51 124.51 145.73 124.51 163.77 103.77 179.03 103.77 157.28 127.25 180.31 154.76 164.41 154.76"/><path class="cls-7" d="M122.08,143a17.32,17.32,0,0,1-2.5,6.09,14.07,14.07,0,0,1-5.06,4.57,17.18,17.18,0,0,1-8.38,1.8,16.83,16.83,0,0,1-10.7-3.35,16,16,0,0,1-5.7-8.61l10.77-3.67a6.38,6.38,0,0,0,1.82,3.24,4.59,4.59,0,0,0,3.24,1.22q3,0,4-2.09a13.19,13.19,0,0,0,1-5.47V103.08h12.26v33.56A31.67,31.67,0,0,1,122.08,143Z"/><polygon class="cls-7" points="163.68 154.07 144.93 130.59 144.79 130.59 144.79 154.07 132.88 154.07 132.88 103.08 144.79 103.08 144.79 123.82 145 123.82 163.04 103.08 178.3 103.08 156.55 126.56 179.58 154.07 163.68 154.07"/><path class="cls-7" d="M121.35,142.29a17.32,17.32,0,0,1-2.5,6.09,14.07,14.07,0,0,1-5.06,4.57,17.18,17.18,0,0,1-8.38,1.8,16.83,16.83,0,0,1-10.7-3.35,16,16,0,0,1-5.7-8.61l10.77-3.67a6.38,6.38,0,0,0,1.82,3.24,4.59,4.59,0,0,0,3.24,1.22q3,0,4-2.09a13.19,13.19,0,0,0,1-5.47V102.39H122V136A31.67,31.67,0,0,1,121.35,142.29Z"/><polygon class="cls-7" points="162.95 153.38 144.2 129.9 144.06 129.9 144.06 153.38 132.15 153.38 132.15 102.39 144.06 102.39 144.06 123.14 144.27 123.14 162.31 102.39 177.57 102.39 155.82 125.87 178.86 153.38 162.95 153.38"/><path class="cls-7" d="M120.62,141.6a17.32,17.32,0,0,1-2.5,6.09,14.07,14.07,0,0,1-5.06,4.57,17.18,17.18,0,0,1-8.38,1.8A16.82,16.82,0,0,1,94,150.71a16,16,0,0,1-5.7-8.61l10.77-3.67a6.38,6.38,0,0,0,1.82,3.24,4.59,4.59,0,0,0,3.24,1.22q3,0,4-2.09a13.19,13.19,0,0,0,1-5.47V101.7H121.3v33.56A31.67,31.67,0,0,1,120.62,141.6Z"/><polygon class="cls-7" points="162.23 152.69 143.47 129.22 143.33 129.22 143.33 152.69 131.42 152.69 131.42 101.7 143.33 101.7 143.33 122.44 143.55 122.44 161.59 101.7 176.85 101.7 155.1 125.18 178.13 152.69 162.23 152.69"/><path class="cls-7" d="M119.89,140.91a17.32,17.32,0,0,1-2.5,6.09,14.07,14.07,0,0,1-5.06,4.57,17.18,17.18,0,0,1-8.38,1.8A16.82,16.82,0,0,1,93.26,150a16,16,0,0,1-5.7-8.61l10.77-3.67a6.38,6.38,0,0,0,1.82,3.24,4.59,4.59,0,0,0,3.24,1.22q3,0,4-2.09a13.19,13.19,0,0,0,1-5.47V101h12.26v33.56A31.67,31.67,0,0,1,119.89,140.91Z"/><polygon class="cls-7" points="161.5 152 142.75 128.53 142.6 128.53 142.6 152 130.7 152 130.7 101.01 142.6 101.01 142.6 121.76 142.82 121.76 160.86 101.01 176.12 101.01 154.37 124.49 177.4 152 161.5 152"/><path class="cls-7" d="M119.17,140.22a17.32,17.32,0,0,1-2.5,6.09,14.07,14.07,0,0,1-5.06,4.57,17.18,17.18,0,0,1-8.38,1.8,16.82,16.82,0,0,1-10.7-3.35,16,16,0,0,1-5.7-8.61l10.77-3.67a6.38,6.38,0,0,0,1.82,3.24,4.59,4.59,0,0,0,3.24,1.22q3,0,4-2.09a13.19,13.19,0,0,0,1-5.47V100.32h12.26v33.56A31.67,31.67,0,0,1,119.17,140.22Z"/><polygon class="cls-7" points="160.77 151.31 142.02 127.84 141.88 127.84 141.88 151.31 129.97 151.31 129.97 100.33 141.88 100.33 141.88 121.07 142.09 121.07 160.13 100.33 175.39 100.33 153.64 123.8 176.68 151.31 160.77 151.31"/><path class="cls-7" d="M118.44,139.53a17.32,17.32,0,0,1-2.5,6.09,14.07,14.07,0,0,1-5.06,4.57,17.18,17.18,0,0,1-8.38,1.8,16.82,16.82,0,0,1-10.7-3.35A16,16,0,0,1,86.1,140l10.77-3.67a6.38,6.38,0,0,0,1.82,3.24,4.59,4.59,0,0,0,3.24,1.22q3,0,4-2.09a13.19,13.19,0,0,0,1-5.47V99.64h12.26V133.2A31.67,31.67,0,0,1,118.44,139.53Z"/><polygon class="cls-7" points="160.05 150.62 141.29 127.15 141.15 127.15 141.15 150.62 129.24 150.62 129.24 99.64 141.15 99.64 141.15 120.38 141.36 120.38 159.4 99.64 174.66 99.64 152.92 123.11 175.95 150.62 160.05 150.62"/><path class="cls-7" d="M117.71,138.84a17.32,17.32,0,0,1-2.5,6.09,14.07,14.07,0,0,1-5.06,4.57,17.18,17.18,0,0,1-8.38,1.8A16.82,16.82,0,0,1,91.08,148a16,16,0,0,1-5.7-8.61l10.77-3.67A6.38,6.38,0,0,0,98,138.92a4.59,4.59,0,0,0,3.24,1.22q3,0,4-2.09a13.19,13.19,0,0,0,1-5.47V98.95h12.26v33.56A31.67,31.67,0,0,1,117.71,138.84Z"/><polygon class="cls-7" points="159.32 149.93 140.57 126.46 140.42 126.46 140.42 149.93 128.51 149.93 128.51 98.95 140.42 98.95 140.42 119.69 140.64 119.69 158.68 98.95 173.94 98.95 152.19 122.42 175.22 149.93 159.32 149.93"/><path class="cls-7" d="M117,138.15a17.32,17.32,0,0,1-2.5,6.09,14.07,14.07,0,0,1-5.06,4.57,17.18,17.18,0,0,1-8.38,1.8,16.82,16.82,0,0,1-10.7-3.35,16,16,0,0,1-5.7-8.61L95.42,135a6.38,6.38,0,0,0,1.82,3.24,4.59,4.59,0,0,0,3.24,1.22q3,0,4-2.09a13.19,13.19,0,0,0,1-5.47V98.26h12.26v33.56A31.67,31.67,0,0,1,117,138.15Z"/><polygon class="cls-7" points="158.59 149.25 139.84 125.77 139.7 125.77 139.7 149.25 127.79 149.25 127.79 98.26 139.7 98.26 139.7 119 139.91 119 157.95 98.26 173.21 98.26 151.46 121.73 174.49 149.25 158.59 149.25"/><path class="cls-7" d="M116.26,137.46a17.32,17.32,0,0,1-2.5,6.09,14.07,14.07,0,0,1-5.06,4.57,17.18,17.18,0,0,1-8.38,1.8,16.82,16.82,0,0,1-10.7-3.35,16,16,0,0,1-5.7-8.61l10.77-3.67a6.38,6.38,0,0,0,1.82,3.24,4.59,4.59,0,0,0,3.24,1.22q3,0,4-2.09a13.19,13.19,0,0,0,1-5.47V97.57h12.26v33.56A31.67,31.67,0,0,1,116.26,137.46Z"/><polygon class="cls-7" points="157.87 148.56 139.11 125.08 138.97 125.08 138.97 148.56 127.06 148.56 127.06 97.57 138.97 97.57 138.97 118.31 139.18 118.31 157.22 97.57 172.48 97.57 150.74 121.04 173.77 148.56 157.87 148.56"/><path class="cls-7" d="M115.53,136.77a17.32,17.32,0,0,1-2.5,6.09,14.07,14.07,0,0,1-5.06,4.57,17.18,17.18,0,0,1-8.38,1.8,16.82,16.82,0,0,1-10.7-3.35,16,16,0,0,1-5.7-8.61L94,133.61a6.38,6.38,0,0,0,1.82,3.24A4.59,4.59,0,0,0,99,138.07q3,0,4-2.09a13.19,13.19,0,0,0,1-5.47V96.88h12.26v33.56A31.67,31.67,0,0,1,115.53,136.77Z"/><polygon class="cls-7" points="157.14 147.87 138.38 124.39 138.24 124.39 138.24 147.87 126.33 147.87 126.33 96.88 138.24 96.88 138.24 117.62 138.46 117.62 156.5 96.88 171.76 96.88 150.01 120.36 173.04 147.87 157.14 147.87"/><path class="cls-7" d="M114.81,136.09a17.32,17.32,0,0,1-2.5,6.09,14.07,14.07,0,0,1-5.06,4.57,17.18,17.18,0,0,1-8.38,1.8,16.82,16.82,0,0,1-10.7-3.35,16,16,0,0,1-5.7-8.61l10.77-3.67a6.38,6.38,0,0,0,1.82,3.24,4.59,4.59,0,0,0,3.24,1.22q3,0,4-2.09a13.19,13.19,0,0,0,1-5.47V96.19h12.26v33.56A31.67,31.67,0,0,1,114.81,136.09Z"/><polygon class="cls-7" points="156.41 147.18 137.66 123.7 137.51 123.7 137.51 147.18 125.61 147.18 125.61 96.19 137.51 96.19 137.51 116.93 137.73 116.93 155.77 96.19 171.03 96.19 149.28 119.67 172.31 147.18 156.41 147.18"/><path class="cls-7" d="M114.08,135.4a17.32,17.32,0,0,1-2.5,6.09,14.07,14.07,0,0,1-5.06,4.57,17.18,17.18,0,0,1-8.38,1.8,16.82,16.82,0,0,1-10.7-3.35,16,16,0,0,1-5.7-8.61l10.77-3.67a6.38,6.38,0,0,0,1.82,3.24,4.59,4.59,0,0,0,3.24,1.22q3,0,4-2.09a13.19,13.19,0,0,0,1-5.47V95.5h12.26v33.56A31.67,31.67,0,0,1,114.08,135.4Z"/><polygon class="cls-7" points="155.68 146.49 136.93 123.01 136.79 123.01 136.79 146.49 124.88 146.49 124.88 95.5 136.79 95.5 136.79 116.24 137 116.24 155.04 95.5 170.3 95.5 148.55 118.98 171.59 146.49 155.68 146.49"/><path class="cls-7" d="M113.35,134.71a17.32,17.32,0,0,1-2.5,6.09,14.07,14.07,0,0,1-5.06,4.57,17.18,17.18,0,0,1-8.38,1.8,16.82,16.82,0,0,1-10.7-3.35,16,16,0,0,1-5.7-8.61l10.77-3.67a6.38,6.38,0,0,0,1.82,3.24A4.59,4.59,0,0,0,96.84,136q3,0,4-2.09a13.19,13.19,0,0,0,1-5.47V94.81H114v33.56A31.67,31.67,0,0,1,113.35,134.71Z"/><polygon class="cls-7" points="154.96 145.8 136.2 122.32 136.06 122.32 136.06 145.8 124.15 145.8 124.15 94.81 136.06 94.81 136.06 115.55 136.28 115.55 154.31 94.81 169.57 94.81 147.83 118.29 170.86 145.8 154.96 145.8"/><path class="cls-7" d="M112.62,134a17.32,17.32,0,0,1-2.5,6.09,14.07,14.07,0,0,1-5.06,4.57,17.18,17.18,0,0,1-8.38,1.8A16.82,16.82,0,0,1,86,143.13a16,16,0,0,1-5.7-8.61l10.77-3.67a6.38,6.38,0,0,0,1.82,3.24,4.59,4.59,0,0,0,3.24,1.22q3,0,4-2.09a13.19,13.19,0,0,0,1-5.47V94.12H113.3v33.56A31.67,31.67,0,0,1,112.62,134Z"/><polygon class="cls-7" points="154.23 145.11 135.48 121.63 135.33 121.63 135.33 145.11 123.43 145.11 123.43 94.12 135.33 94.12 135.33 114.86 135.55 114.86 153.59 94.12 168.85 94.12 147.1 117.6 170.13 145.11 154.23 145.11"/><path class="cls-7" d="M111.9,133.33a17.32,17.32,0,0,1-2.5,6.09,14.07,14.07,0,0,1-5.06,4.57,17.18,17.18,0,0,1-8.38,1.8,16.82,16.82,0,0,1-10.7-3.35,16,16,0,0,1-5.7-8.61l10.77-3.67a6.38,6.38,0,0,0,1.82,3.24,4.59,4.59,0,0,0,3.24,1.22q3,0,4-2.09a13.19,13.19,0,0,0,1-5.47V93.43h12.26V127A31.67,31.67,0,0,1,111.9,133.33Z"/><polygon class="cls-7" points="153.5 144.42 134.75 120.94 134.61 120.94 134.61 144.42 122.7 144.42 122.7 93.43 134.61 93.43 134.61 114.17 134.82 114.17 152.86 93.43 168.12 93.43 146.37 116.91 169.4 144.42 153.5 144.42"/><path class="cls-7" d="M111.17,132.64a17.32,17.32,0,0,1-2.5,6.09,14.07,14.07,0,0,1-5.06,4.57,17.18,17.18,0,0,1-8.38,1.8,16.82,16.82,0,0,1-10.7-3.35,16,16,0,0,1-5.7-8.61l10.77-3.67a6.38,6.38,0,0,0,1.82,3.24,4.59,4.59,0,0,0,3.24,1.22q3,0,4-2.09a13.19,13.19,0,0,0,1-5.47V92.74h12.26V126.3A31.67,31.67,0,0,1,111.17,132.64Z"/><polygon class="cls-7" points="152.78 143.73 134.02 120.25 133.88 120.25 133.88 143.73 121.97 143.73 121.97 92.74 133.88 92.74 133.88 113.48 134.09 113.48 152.13 92.74 167.39 92.74 145.65 116.22 168.68 143.73 152.78 143.73"/><path class="cls-7" d="M110.44,131.95a17.32,17.32,0,0,1-2.5,6.09,14.07,14.07,0,0,1-5.06,4.57,17.18,17.18,0,0,1-8.38,1.8,16.82,16.82,0,0,1-10.7-3.35,16,16,0,0,1-5.7-8.61l10.77-3.67A6.38,6.38,0,0,0,90.69,132a4.59,4.59,0,0,0,3.24,1.22q3,0,4-2.09a13.19,13.19,0,0,0,1-5.47V92.05h12.26v33.56A31.67,31.67,0,0,1,110.44,131.95Z"/><polygon class="cls-7" points="152.05 143.04 133.29 119.56 133.15 119.56 133.15 143.04 121.24 143.04 121.24 92.05 133.15 92.05 133.15 112.79 133.37 112.79 151.41 92.05 166.67 92.05 144.92 115.53 167.95 143.04 152.05 143.04"/><path class="cls-7" d="M109.72,131.26a17.32,17.32,0,0,1-2.5,6.09,14.07,14.07,0,0,1-5.06,4.57,17.18,17.18,0,0,1-8.38,1.8,16.82,16.82,0,0,1-10.7-3.35,16,16,0,0,1-5.7-8.61l10.77-3.67A6.38,6.38,0,0,0,90,131.33a4.59,4.59,0,0,0,3.24,1.22q3,0,4-2.09a13.19,13.19,0,0,0,1-5.47V91.36h12.26v33.56A31.67,31.67,0,0,1,109.72,131.26Z"/><polygon class="cls-7" points="151.32 142.35 132.57 118.87 132.43 118.87 132.43 142.35 120.52 142.35 120.52 91.36 132.43 91.36 132.43 112.1 132.64 112.1 150.68 91.36 165.94 91.36 144.19 114.84 167.22 142.35 151.32 142.35"/><path class="cls-7" d="M109,130.57a17.32,17.32,0,0,1-2.5,6.09,14.07,14.07,0,0,1-5.06,4.57,17.18,17.18,0,0,1-8.38,1.8,16.82,16.82,0,0,1-10.7-3.35,16,16,0,0,1-5.7-8.61l10.77-3.67a6.38,6.38,0,0,0,1.82,3.24,4.59,4.59,0,0,0,3.24,1.22q3,0,4-2.09a13.19,13.19,0,0,0,1-5.47V90.67h12.26v33.56A31.67,31.67,0,0,1,109,130.57Z"/><polygon class="cls-7" points="150.59 141.66 131.84 118.18 131.7 118.18 131.7 141.66 119.79 141.66 119.79 90.67 131.7 90.67 131.7 111.41 131.91 111.41 149.95 90.67 165.21 90.67 143.46 114.15 166.5 141.66 150.59 141.66"/><path class="cls-7" d="M108.26,129.88a17.32,17.32,0,0,1-2.5,6.09,14.07,14.07,0,0,1-5.06,4.57,17.18,17.18,0,0,1-8.38,1.8A16.82,16.82,0,0,1,81.63,139a16,16,0,0,1-5.7-8.61l10.77-3.67A6.38,6.38,0,0,0,88.51,130a4.59,4.59,0,0,0,3.24,1.22q3,0,4-2.09a13.19,13.19,0,0,0,1-5.47V90h12.26v33.56A31.67,31.67,0,0,1,108.26,129.88Z"/><polygon class="cls-7" points="149.87 140.97 131.11 117.49 130.97 117.49 130.97 140.97 119.06 140.97 119.06 89.98 130.97 89.98 130.97 110.72 131.19 110.72 149.22 89.98 164.49 89.98 142.74 113.46 165.77 140.97 149.87 140.97"/><path class="cls-7" d="M107.53,129.19a17.32,17.32,0,0,1-2.5,6.09,14.07,14.07,0,0,1-5.06,4.57,17.18,17.18,0,0,1-8.38,1.8,16.82,16.82,0,0,1-10.7-3.35,16,16,0,0,1-5.7-8.61L86,126a6.38,6.38,0,0,0,1.82,3.24A4.59,4.59,0,0,0,91,130.49q3,0,4-2.09a13.19,13.19,0,0,0,1-5.47V89.29h12.26v33.56A31.67,31.67,0,0,1,107.53,129.19Z"/><polygon class="cls-7" points="149.14 140.28 130.39 116.8 130.24 116.8 130.24 140.28 118.34 140.28 118.34 89.29 130.24 89.29 130.24 110.03 130.46 110.03 148.5 89.29 163.76 89.29 142.01 112.77 165.04 140.28 149.14 140.28"/><path class="cls-7" d="M106.81,128.5a17.32,17.32,0,0,1-2.5,6.09,14.07,14.07,0,0,1-5.06,4.57,17.18,17.18,0,0,1-8.38,1.8,16.82,16.82,0,0,1-10.7-3.35,16,16,0,0,1-5.7-8.61l10.77-3.67a6.38,6.38,0,0,0,1.82,3.24,4.59,4.59,0,0,0,3.24,1.22q3,0,4-2.09a13.19,13.19,0,0,0,1-5.47V88.6h12.26v33.56A31.67,31.67,0,0,1,106.81,128.5Z"/><polygon class="cls-7" points="148.41 139.59 129.66 116.11 129.52 116.11 129.52 139.59 117.61 139.59 117.61 88.6 129.52 88.6 129.52 109.34 129.73 109.34 147.77 88.6 163.03 88.6 141.28 112.08 164.31 139.59 148.41 139.59"/><path class="cls-7" d="M106.08,127.81a17.32,17.32,0,0,1-2.5,6.09,14.07,14.07,0,0,1-5.06,4.57,17.18,17.18,0,0,1-8.38,1.8,16.82,16.82,0,0,1-10.7-3.35,16,16,0,0,1-5.7-8.61l10.77-3.67a6.38,6.38,0,0,0,1.82,3.24,4.59,4.59,0,0,0,3.24,1.22q3,0,4-2.09a13.19,13.19,0,0,0,1-5.47V87.91h12.26v33.56A31.67,31.67,0,0,1,106.08,127.81Z"/><polygon class="cls-7" points="147.69 138.9 128.93 115.42 128.79 115.42 128.79 138.9 116.88 138.9 116.88 87.91 128.79 87.91 128.79 108.66 129 108.66 147.04 87.91 162.3 87.91 140.56 111.39 163.59 138.9 147.69 138.9"/><path class="cls-7" d="M105.35,127.12a17.32,17.32,0,0,1-2.5,6.09,14.07,14.07,0,0,1-5.06,4.57,17.18,17.18,0,0,1-8.38,1.8,16.82,16.82,0,0,1-10.7-3.35,16,16,0,0,1-5.7-8.61L83.78,124a6.38,6.38,0,0,0,1.82,3.24,4.59,4.59,0,0,0,3.24,1.22q3,0,4-2.09a13.19,13.19,0,0,0,1-5.47V87.22H106v33.56A31.67,31.67,0,0,1,105.35,127.12Z"/><polygon class="cls-7" points="146.96 138.21 128.21 114.73 128.06 114.73 128.06 138.21 116.16 138.21 116.16 87.22 128.06 87.22 128.06 107.97 128.28 107.97 146.32 87.22 161.58 87.22 139.83 110.7 162.86 138.21 146.96 138.21"/><path class="cls-7" d="M104.63,126.43a17.32,17.32,0,0,1-2.5,6.09,14.07,14.07,0,0,1-5.06,4.57,17.18,17.18,0,0,1-8.38,1.8A16.82,16.82,0,0,1,78,135.54a16,16,0,0,1-5.7-8.61l10.77-3.67a6.38,6.38,0,0,0,1.82,3.24,4.59,4.59,0,0,0,3.24,1.22q3,0,4-2.09a13.19,13.19,0,0,0,1-5.47V86.54H105.3V120.1A31.67,31.67,0,0,1,104.63,126.43Z"/><polygon class="cls-7" points="146.23 137.52 127.48 114.05 127.34 114.05 127.34 137.52 115.43 137.52 115.43 86.53 127.34 86.53 127.34 107.28 127.55 107.28 145.59 86.53 160.85 86.53 139.1 110.01 162.13 137.52 146.23 137.52"/><path class="cls-7" d="M103.9,125.74a17.32,17.32,0,0,1-2.5,6.09,14.07,14.07,0,0,1-5.06,4.57A17.18,17.18,0,0,1,88,138.2a16.82,16.82,0,0,1-10.7-3.35,16,16,0,0,1-5.7-8.61l10.77-3.67a6.38,6.38,0,0,0,1.82,3.24A4.59,4.59,0,0,0,87.39,127q3,0,4-2.09a13.19,13.19,0,0,0,1-5.47V85.85h12.26v33.56A31.67,31.67,0,0,1,103.9,125.74Z"/><polygon class="cls-7" points="145.5 136.83 126.75 113.36 126.61 113.36 126.61 136.83 114.7 136.83 114.7 85.85 126.61 85.85 126.61 106.59 126.82 106.59 144.86 85.85 160.12 85.85 138.37 109.32 161.41 136.83 145.5 136.83"/><path class="cls-7" d="M103.17,125.05a17.32,17.32,0,0,1-2.5,6.09,14.07,14.07,0,0,1-5.06,4.57,17.18,17.18,0,0,1-8.38,1.8,16.82,16.82,0,0,1-10.7-3.35,16,16,0,0,1-5.7-8.61l10.77-3.67a6.38,6.38,0,0,0,1.82,3.24,4.59,4.59,0,0,0,3.24,1.22q3,0,4-2.09a13.19,13.19,0,0,0,1-5.47V85.16h12.26v33.56A31.67,31.67,0,0,1,103.17,125.05Z"/><polygon class="cls-7" points="144.78 136.14 126.02 112.67 125.88 112.67 125.88 136.14 113.97 136.14 113.97 85.16 125.88 85.16 125.88 105.9 126.09 105.9 144.13 85.16 159.4 85.16 137.65 108.63 160.68 136.14 144.78 136.14"/><path class="cls-7" d="M102.44,124.36a17.32,17.32,0,0,1-2.5,6.09A14.07,14.07,0,0,1,94.89,135a17.18,17.18,0,0,1-8.38,1.8,16.82,16.82,0,0,1-10.7-3.35,16,16,0,0,1-5.7-8.61l10.77-3.67a6.38,6.38,0,0,0,1.82,3.24,4.59,4.59,0,0,0,3.24,1.22q3,0,4-2.09a13.19,13.19,0,0,0,1-5.47V84.47h12.26V118A31.67,31.67,0,0,1,102.44,124.36Z"/><polygon class="cls-7" points="144.05 135.46 125.3 111.98 125.15 111.98 125.15 135.46 113.25 135.46 113.25 84.47 125.15 84.47 125.15 105.21 125.37 105.21 143.41 84.47 158.67 84.47 136.92 107.94 159.95 135.46 144.05 135.46"/><path class="cls-7" d="M101.72,123.67a17.32,17.32,0,0,1-2.5,6.09,14.07,14.07,0,0,1-5.06,4.57,17.18,17.18,0,0,1-8.38,1.8,16.82,16.82,0,0,1-10.7-3.35,16,16,0,0,1-5.7-8.61l10.77-3.67A6.38,6.38,0,0,0,82,123.75,4.59,4.59,0,0,0,85.21,125q3,0,4-2.09a13.19,13.19,0,0,0,1-5.47V83.78h12.26v33.56A31.67,31.67,0,0,1,101.72,123.67Z"/><polygon class="cls-7" points="143.32 134.76 124.57 111.29 124.43 111.29 124.43 134.76 112.52 134.76 112.52 83.78 124.43 83.78 124.43 104.52 124.64 104.52 142.68 83.78 157.94 83.78 136.19 107.25 159.22 134.76 143.32 134.76"/><path class="cls-7" d="M101,123a17.32,17.32,0,0,1-2.5,6.09,14.07,14.07,0,0,1-5.06,4.57,17.18,17.18,0,0,1-8.38,1.8,16.82,16.82,0,0,1-10.7-3.35,16,16,0,0,1-5.7-8.61l10.77-3.67a6.38,6.38,0,0,0,1.82,3.24,4.59,4.59,0,0,0,3.24,1.22q3,0,4-2.09a13.19,13.19,0,0,0,1-5.47V83.09h12.26v33.56A31.67,31.67,0,0,1,101,123Z"/><polygon class="cls-7" points="142.6 134.08 123.84 110.6 123.7 110.6 123.7 134.08 111.79 134.08 111.79 83.09 123.7 83.09 123.7 103.83 123.91 103.83 141.95 83.09 157.21 83.09 135.47 106.56 158.5 134.08 142.6 134.08"/><path class="cls-7" d="M100.26,122.3a17.32,17.32,0,0,1-2.5,6.09A14.07,14.07,0,0,1,92.7,133a17.18,17.18,0,0,1-8.38,1.8,16.82,16.82,0,0,1-10.7-3.35,16,16,0,0,1-5.7-8.61l10.77-3.67a6.38,6.38,0,0,0,1.82,3.24,4.59,4.59,0,0,0,3.24,1.22q3,0,4-2.09a13.19,13.19,0,0,0,1-5.47V82.4h12.26V116A31.67,31.67,0,0,1,100.26,122.3Z"/><polygon class="cls-7" points="141.87 133.39 123.12 109.91 122.97 109.91 122.97 133.39 111.06 133.39 111.06 82.4 122.97 82.4 122.97 103.14 123.19 103.14 141.23 82.4 156.49 82.4 134.74 105.88 157.77 133.39 141.87 133.39"/><path class="cls-7" d="M99.54,121.61a17.32,17.32,0,0,1-2.5,6.09A14.07,14.07,0,0,1,92,132.27a17.18,17.18,0,0,1-8.38,1.8,16.82,16.82,0,0,1-10.7-3.35,16,16,0,0,1-5.7-8.61L78,118.44a6.38,6.38,0,0,0,1.82,3.24A4.59,4.59,0,0,0,83,122.9q3,0,4-2.09a13.19,13.19,0,0,0,1-5.47V81.71h12.26v33.56A31.67,31.67,0,0,1,99.54,121.61Z"/><polygon class="cls-7" points="141.14 132.7 122.39 109.22 122.25 109.22 122.25 132.7 110.34 132.7 110.34 81.71 122.25 81.71 122.25 102.45 122.46 102.45 140.5 81.71 155.76 81.71 134.01 105.19 157.04 132.7 141.14 132.7"/><path class="cls-7" d="M98.81,120.92a17.32,17.32,0,0,1-2.5,6.09,14.07,14.07,0,0,1-5.06,4.57,17.18,17.18,0,0,1-8.38,1.8A16.82,16.82,0,0,1,72.18,130a16,16,0,0,1-5.7-8.61l10.77-3.67A6.38,6.38,0,0,0,79.06,121a4.59,4.59,0,0,0,3.24,1.22q3,0,4-2.09a13.19,13.19,0,0,0,1-5.47V81H99.49v33.56A31.67,31.67,0,0,1,98.81,120.92Z"/><polygon class="cls-7" points="140.41 132.01 121.66 108.53 121.52 108.53 121.52 132.01 109.61 132.01 109.61 81.02 121.52 81.02 121.52 101.76 121.73 101.76 139.77 81.02 155.03 81.02 133.28 104.5 156.32 132.01 140.41 132.01"/><path class="cls-7" d="M98.08,120.23a17.32,17.32,0,0,1-2.5,6.09,14.07,14.07,0,0,1-5.06,4.57,17.18,17.18,0,0,1-8.38,1.8,16.82,16.82,0,0,1-10.7-3.35,16,16,0,0,1-5.7-8.61l10.77-3.67a6.38,6.38,0,0,0,1.82,3.24,4.59,4.59,0,0,0,3.24,1.22q3,0,4-2.09a13.19,13.19,0,0,0,1-5.47V80.33H98.76v33.56A31.67,31.67,0,0,1,98.08,120.23Z"/><polygon class="cls-7" points="139.69 131.32 120.93 107.84 120.79 107.84 120.79 131.32 108.88 131.32 108.88 80.33 120.79 80.33 120.79 101.07 121.01 101.07 139.05 80.33 154.31 80.33 132.56 103.81 155.59 131.32 139.69 131.32"/><path class="cls-7" d="M97.35,119.54a17.32,17.32,0,0,1-2.5,6.09,14.07,14.07,0,0,1-5.06,4.57,17.18,17.18,0,0,1-8.38,1.8,16.82,16.82,0,0,1-10.7-3.35A16,16,0,0,1,65,120l10.77-3.67a6.38,6.38,0,0,0,1.82,3.24,4.59,4.59,0,0,0,3.24,1.22q3,0,4-2.09a13.19,13.19,0,0,0,1-5.47V79.64H98V113.2A31.67,31.67,0,0,1,97.35,119.54Z"/><polygon class="cls-7" points="138.96 130.63 120.21 107.15 120.06 107.15 120.06 130.63 108.16 130.63 108.16 79.64 120.06 79.64 120.06 100.38 120.28 100.38 138.32 79.64 153.58 79.64 131.83 103.12 154.86 130.63 138.96 130.63"/><path class="cls-7" d="M96.63,118.85a17.32,17.32,0,0,1-2.5,6.09,14.07,14.07,0,0,1-5.06,4.57,17.18,17.18,0,0,1-8.38,1.8A16.82,16.82,0,0,1,70,128a16,16,0,0,1-5.7-8.61l10.77-3.67a6.38,6.38,0,0,0,1.82,3.24,4.59,4.59,0,0,0,3.24,1.22q3,0,4-2.09a13.19,13.19,0,0,0,1-5.47V79H97.31v33.56A31.67,31.67,0,0,1,96.63,118.85Z"/><polygon class="cls-7" points="138.23 129.94 119.48 106.46 119.34 106.46 119.34 129.94 107.43 129.94 107.43 78.95 119.34 78.95 119.34 99.69 119.55 99.69 137.59 78.95 152.85 78.95 131.1 102.43 154.13 129.94 138.23 129.94"/><path class="cls-7" d="M95.9,118.16a17.32,17.32,0,0,1-2.5,6.09,14.07,14.07,0,0,1-5.06,4.57,17.18,17.18,0,0,1-8.38,1.8,16.82,16.82,0,0,1-10.7-3.35,16,16,0,0,1-5.7-8.61L74.33,115a6.38,6.38,0,0,0,1.82,3.24,4.59,4.59,0,0,0,3.24,1.22q3,0,4-2.09a13.19,13.19,0,0,0,1-5.47V78.26H96.58v33.56A31.67,31.67,0,0,1,95.9,118.16Z"/><polygon class="cls-7" points="137.51 129.25 118.75 105.77 118.61 105.77 118.61 129.25 106.7 129.25 106.7 78.26 118.61 78.26 118.61 99 118.82 99 136.86 78.26 152.12 78.26 130.38 101.74 153.41 129.25 137.51 129.25"/><path class="cls-7" d="M95.17,117.47a17.32,17.32,0,0,1-2.5,6.09,14.07,14.07,0,0,1-5.06,4.57,17.18,17.18,0,0,1-8.38,1.8,16.82,16.82,0,0,1-10.7-3.35,16,16,0,0,1-5.7-8.61L73.6,114.3a6.38,6.38,0,0,0,1.82,3.24,4.59,4.59,0,0,0,3.24,1.22q3,0,4-2.09a13.19,13.19,0,0,0,1-5.47V77.57H95.85v33.56A31.67,31.67,0,0,1,95.17,117.47Z"/><polygon class="cls-7" points="136.78 128.56 118.03 105.08 117.88 105.08 117.88 128.56 105.97 128.56 105.97 77.57 117.88 77.57 117.88 98.31 118.1 98.31 136.14 77.57 151.4 77.57 129.65 101.05 152.68 128.56 136.78 128.56"/><path class="cls-7" d="M94.45,116.78a17.33,17.33,0,0,1-2.5,6.09,14.07,14.07,0,0,1-5.06,4.57,17.18,17.18,0,0,1-8.38,1.8,16.82,16.82,0,0,1-10.7-3.35,16,16,0,0,1-5.7-8.61l10.77-3.67a6.38,6.38,0,0,0,1.82,3.24,4.59,4.59,0,0,0,3.24,1.22q3,0,4-2.09a13.19,13.19,0,0,0,1-5.47V76.88H95.12v33.56A31.67,31.67,0,0,1,94.45,116.78Z"/><polygon class="cls-7" points="136.05 127.87 117.3 104.39 117.16 104.39 117.16 127.87 105.25 127.87 105.25 76.88 117.16 76.88 117.16 97.62 117.37 97.62 135.41 76.88 150.67 76.88 128.92 100.36 151.95 127.87 136.05 127.87"/><path class="cls-7" d="M93.72,116.09a17.33,17.33,0,0,1-2.5,6.09,14.07,14.07,0,0,1-5.06,4.57,17.18,17.18,0,0,1-8.38,1.8,16.82,16.82,0,0,1-10.7-3.35,16,16,0,0,1-5.7-8.61l10.77-3.67A6.38,6.38,0,0,0,74,116.16a4.59,4.59,0,0,0,3.24,1.22q3,0,4-2.09a13.19,13.19,0,0,0,1-5.47V76.19H94.4v33.56A31.67,31.67,0,0,1,93.72,116.09Z"/><polygon class="cls-7" points="135.32 127.18 116.57 103.7 116.43 103.7 116.43 127.18 104.52 127.18 104.52 76.19 116.43 76.19 116.43 96.93 116.64 96.93 134.68 76.19 149.94 76.19 128.19 99.67 151.23 127.18 135.32 127.18"/><path class="cls-7" d="M93,115.4a17.33,17.33,0,0,1-2.5,6.09,14.07,14.07,0,0,1-5.06,4.57,17.18,17.18,0,0,1-8.38,1.8,16.82,16.82,0,0,1-10.7-3.35,16,16,0,0,1-5.7-8.61l10.77-3.67a6.38,6.38,0,0,0,1.82,3.24,4.59,4.59,0,0,0,3.24,1.22q3,0,4-2.09a13.19,13.19,0,0,0,1-5.47V75.5H93.67v33.56A31.67,31.67,0,0,1,93,115.4Z"/><polygon class="cls-7" points="134.6 126.49 115.84 103.01 115.7 103.01 115.7 126.49 103.79 126.49 103.79 75.5 115.7 75.5 115.7 96.24 115.92 96.24 133.96 75.5 149.22 75.5 127.47 98.98 150.5 126.49 134.6 126.49"/><path class="cls-7" d="M92.27,114.71a17.33,17.33,0,0,1-2.5,6.09,14.07,14.07,0,0,1-5.06,4.57,17.18,17.18,0,0,1-8.38,1.8,16.82,16.82,0,0,1-10.7-3.35,16,16,0,0,1-5.7-8.61l10.77-3.67a6.38,6.38,0,0,0,1.82,3.24A4.59,4.59,0,0,0,75.76,116q3,0,4-2.09a13.19,13.19,0,0,0,1-5.47V74.81H92.94v33.56A31.67,31.67,0,0,1,92.27,114.71Z"/><polygon class="cls-7" points="133.87 125.8 115.12 102.32 114.97 102.32 114.97 125.8 103.07 125.8 103.07 74.81 114.97 74.81 114.97 95.56 115.19 95.56 133.23 74.81 148.49 74.81 126.74 98.29 149.77 125.8 133.87 125.8"/><path class="cls-7" d="M91.54,114a17.33,17.33,0,0,1-2.5,6.09A14.07,14.07,0,0,1,84,124.68a17.18,17.18,0,0,1-8.38,1.8,16.82,16.82,0,0,1-10.7-3.35,16,16,0,0,1-5.7-8.61L70,110.85a6.38,6.38,0,0,0,1.82,3.24A4.59,4.59,0,0,0,75,115.32q3,0,4-2.09a13.19,13.19,0,0,0,1-5.47V74.12H92.22v33.56A31.67,31.67,0,0,1,91.54,114Z"/><polygon class="cls-7" points="133.14 125.11 114.39 101.64 114.25 101.64 114.25 125.11 102.34 125.11 102.34 74.12 114.25 74.12 114.25 94.86 114.46 94.86 132.5 74.12 147.76 74.12 126.01 97.6 149.04 125.11 133.14 125.11"/><path class="cls-7" d="M90.81,113.33a17.33,17.33,0,0,1-2.5,6.09A14.07,14.07,0,0,1,83.25,124a17.18,17.18,0,0,1-8.38,1.8,16.82,16.82,0,0,1-10.7-3.35,16,16,0,0,1-5.7-8.61l10.77-3.67a6.38,6.38,0,0,0,1.82,3.24,4.59,4.59,0,0,0,3.24,1.22q3,0,4-2.09a13.19,13.19,0,0,0,1-5.47V73.43H91.49V107A31.67,31.67,0,0,1,90.81,113.33Z"/><polygon class="cls-7" points="132.42 124.42 113.66 100.94 113.52 100.94 113.52 124.42 101.61 124.42 101.61 73.44 113.52 73.44 113.52 94.18 113.73 94.18 131.78 73.44 147.03 73.44 125.29 96.91 148.32 124.42 132.42 124.42"/><path class="cls-7" d="M90.08,112.64a17.33,17.33,0,0,1-2.5,6.09,14.07,14.07,0,0,1-5.06,4.57,17.18,17.18,0,0,1-8.38,1.8,16.82,16.82,0,0,1-10.7-3.35,16,16,0,0,1-5.7-8.61l10.77-3.67a6.38,6.38,0,0,0,1.82,3.24,4.59,4.59,0,0,0,3.24,1.22q3,0,4-2.09a13.19,13.19,0,0,0,1-5.47V72.75H90.76v33.56A31.67,31.67,0,0,1,90.08,112.64Z"/><polygon class="cls-7" points="131.69 123.73 112.94 100.26 112.79 100.26 112.79 123.73 100.89 123.73 100.89 72.75 112.79 72.75 112.79 93.49 113.01 93.49 131.05 72.75 146.31 72.75 124.56 96.22 147.59 123.73 131.69 123.73"/><path class="cls-7" d="M89.36,112a17.33,17.33,0,0,1-2.5,6.09,14.07,14.07,0,0,1-5.06,4.57,17.18,17.18,0,0,1-8.38,1.8,16.82,16.82,0,0,1-10.7-3.35,16,16,0,0,1-5.7-8.61l10.77-3.67A6.38,6.38,0,0,0,69.61,112a4.59,4.59,0,0,0,3.24,1.22q3,0,4-2.09a13.19,13.19,0,0,0,1-5.47V72.06H90v33.56A31.67,31.67,0,0,1,89.36,112Z"/><polygon class="cls-7" points="130.96 123.04 112.21 99.57 112.07 99.57 112.07 123.04 100.16 123.04 100.16 72.06 112.07 72.06 112.07 92.8 112.28 92.8 130.32 72.06 145.58 72.06 123.83 95.53 146.86 123.04 130.96 123.04"/><path class="cls-7" d="M88.63,111.26a17.33,17.33,0,0,1-2.5,6.09,14.07,14.07,0,0,1-5.06,4.57,17.18,17.18,0,0,1-8.38,1.8A16.82,16.82,0,0,1,62,120.37a16,16,0,0,1-5.7-8.61l10.77-3.67a6.38,6.38,0,0,0,1.82,3.24,4.59,4.59,0,0,0,3.24,1.22q3,0,4-2.09A13.19,13.19,0,0,0,77,105V71.37H89.31v33.56A31.67,31.67,0,0,1,88.63,111.26Z"/><polygon class="cls-7" points="130.24 122.36 111.48 98.88 111.34 98.88 111.34 122.36 99.43 122.36 99.43 71.37 111.34 71.37 111.34 92.11 111.55 92.11 129.59 71.37 144.85 71.37 123.11 94.84 146.14 122.36 130.24 122.36"/><path class="cls-7" d="M87.9,110.57a17.33,17.33,0,0,1-2.5,6.09,14.07,14.07,0,0,1-5.06,4.57A17.18,17.18,0,0,1,72,123a16.82,16.82,0,0,1-10.7-3.35,16,16,0,0,1-5.7-8.61l10.77-3.67a6.38,6.38,0,0,0,1.82,3.24,4.59,4.59,0,0,0,3.24,1.22q3,0,4-2.09a13.19,13.19,0,0,0,1-5.47V70.68H88.58v33.56A31.67,31.67,0,0,1,87.9,110.57Z"/><polygon class="cls-7" points="129.51 121.67 110.75 98.19 110.61 98.19 110.61 121.67 98.7 121.67 98.7 70.68 110.61 70.68 110.61 91.42 110.83 91.42 128.87 70.68 144.13 70.68 122.38 94.15 145.41 121.67 129.51 121.67"/><path class="cls-7" d="M87.18,109.88a17.33,17.33,0,0,1-2.5,6.09,14.07,14.07,0,0,1-5.06,4.57,17.18,17.18,0,0,1-8.38,1.8A16.82,16.82,0,0,1,60.54,119a16,16,0,0,1-5.7-8.61l10.77-3.67A6.38,6.38,0,0,0,67.42,110a4.59,4.59,0,0,0,3.24,1.22q3,0,4-2.09a13.19,13.19,0,0,0,1-5.47V70H87.85v33.56A31.67,31.67,0,0,1,87.18,109.88Z"/><polygon class="cls-7" points="128.78 120.98 110.03 97.5 109.89 97.5 109.89 120.98 97.98 120.98 97.98 69.99 109.89 69.99 109.89 90.73 110.1 90.73 128.14 69.99 143.4 69.99 121.65 93.47 144.68 120.98 128.78 120.98"/><path class="cls-7" d="M86.45,109.2a17.33,17.33,0,0,1-2.5,6.09,14.07,14.07,0,0,1-5.06,4.57,17.18,17.18,0,0,1-8.38,1.8,16.82,16.82,0,0,1-10.7-3.35,16,16,0,0,1-5.7-8.61L64.88,106a6.38,6.38,0,0,0,1.82,3.24,4.59,4.59,0,0,0,3.24,1.22q3,0,4-2.09a13.19,13.19,0,0,0,1-5.47V69.3H87.13v33.56A31.67,31.67,0,0,1,86.45,109.2Z"/><polygon class="cls-7" points="128.05 120.29 109.3 96.81 109.16 96.81 109.16 120.29 97.25 120.29 97.25 69.3 109.16 69.3 109.16 90.04 109.37 90.04 127.41 69.3 142.67 69.3 120.92 92.78 143.96 120.29 128.05 120.29"/><path class="cls-7" d="M85.72,108.51a17.33,17.33,0,0,1-2.5,6.09,14.07,14.07,0,0,1-5.06,4.57,17.18,17.18,0,0,1-8.38,1.8,16.82,16.82,0,0,1-10.7-3.35,16,16,0,0,1-5.7-8.61l10.77-3.67A6.38,6.38,0,0,0,66,108.58a4.59,4.59,0,0,0,3.24,1.22q3,0,4-2.09a13.19,13.19,0,0,0,1-5.47V68.61H86.4v33.56A31.67,31.67,0,0,1,85.72,108.51Z"/><polygon class="cls-7" points="127.33 119.6 108.57 96.12 108.43 96.12 108.43 119.6 96.52 119.6 96.52 68.61 108.43 68.61 108.43 89.35 108.64 89.35 126.69 68.61 141.94 68.61 120.2 92.09 143.23 119.6 127.33 119.6"/><path class="cls-7" d="M85,107.82a17.33,17.33,0,0,1-2.5,6.09,14.07,14.07,0,0,1-5.06,4.57,17.18,17.18,0,0,1-8.38,1.8,16.82,16.82,0,0,1-10.7-3.35,16,16,0,0,1-5.7-8.61l10.77-3.67a6.38,6.38,0,0,0,1.82,3.24,4.59,4.59,0,0,0,3.24,1.22q3,0,4-2.09a13.19,13.19,0,0,0,1-5.47V67.92H85.67v33.56A31.67,31.67,0,0,1,85,107.82Z"/><polygon class="cls-7" points="126.6 118.91 107.85 95.43 107.7 95.43 107.7 118.91 95.8 118.91 95.8 67.92 107.7 67.92 107.7 88.66 107.92 88.66 125.96 67.92 141.22 67.92 119.47 91.4 142.5 118.91 126.6 118.91"/><path class="cls-7" d="M84.27,107.13a17.33,17.33,0,0,1-2.5,6.09,14.07,14.07,0,0,1-5.06,4.57,17.18,17.18,0,0,1-8.38,1.8,16.82,16.82,0,0,1-10.7-3.35,16,16,0,0,1-5.7-8.61L62.7,104a6.38,6.38,0,0,0,1.82,3.24,4.59,4.59,0,0,0,3.24,1.22q3,0,4-2.09a13.19,13.19,0,0,0,1-5.47V67.23H84.94v33.56A31.67,31.67,0,0,1,84.27,107.13Z"/><polygon class="cls-7" points="125.87 118.22 107.12 94.74 106.98 94.74 106.98 118.22 95.07 118.22 95.07 67.23 106.98 67.23 106.98 87.97 107.19 87.97 125.23 67.23 140.49 67.23 118.74 90.71 141.77 118.22 125.87 118.22"/><path class="cls-7" d="M83.54,106.44a17.33,17.33,0,0,1-2.5,6.09A14.07,14.07,0,0,1,76,117.1a17.18,17.18,0,0,1-8.38,1.8,16.82,16.82,0,0,1-10.7-3.35,16,16,0,0,1-5.7-8.61L62,103.27a6.38,6.38,0,0,0,1.82,3.24A4.59,4.59,0,0,0,67,107.73q3,0,4-2.09a13.19,13.19,0,0,0,1-5.47V66.54H84.22V100.1A31.67,31.67,0,0,1,83.54,106.44Z"/><polygon class="cls-7" points="125.14 117.53 106.39 94.05 106.25 94.05 106.25 117.53 94.34 117.53 94.34 66.54 106.25 66.54 106.25 87.28 106.46 87.28 124.5 66.54 139.76 66.54 118.02 90.02 141.05 117.53 125.14 117.53"/><path class="cls-7" d="M82.81,105.75a17.33,17.33,0,0,1-2.5,6.09,14.07,14.07,0,0,1-5.06,4.57,17.18,17.18,0,0,1-8.38,1.8,16.82,16.82,0,0,1-10.7-3.35,16,16,0,0,1-5.7-8.61l10.77-3.67a6.38,6.38,0,0,0,1.82,3.24A4.59,4.59,0,0,0,66.31,107q3,0,4-2.09a13.19,13.19,0,0,0,1-5.47V65.85H83.49V99.41A31.67,31.67,0,0,1,82.81,105.75Z"/><polygon class="cls-7" points="124.42 116.84 105.67 93.36 105.52 93.36 105.52 116.84 93.61 116.84 93.61 65.85 105.52 65.85 105.52 86.59 105.74 86.59 123.78 65.85 139.04 65.85 117.29 89.33 140.32 116.84 124.42 116.84"/><path class="cls-7" d="M82.09,105.06a17.33,17.33,0,0,1-2.5,6.09,14.07,14.07,0,0,1-5.06,4.57,17.18,17.18,0,0,1-8.38,1.8,16.82,16.82,0,0,1-10.7-3.35,16,16,0,0,1-5.7-8.61l10.77-3.67a6.38,6.38,0,0,0,1.82,3.24,4.59,4.59,0,0,0,3.24,1.22q3,0,4-2.09a13.19,13.19,0,0,0,1-5.47V65.16H82.76V98.72A31.67,31.67,0,0,1,82.09,105.06Z"/><polygon class="cls-7" points="123.69 116.15 104.94 92.67 104.8 92.67 104.8 116.15 92.89 116.15 92.89 65.16 104.8 65.16 104.8 85.9 105.01 85.9 123.05 65.16 138.31 65.16 116.56 88.64 139.59 116.15 123.69 116.15"/><path class="cls-7" d="M81.36,104.37a17.33,17.33,0,0,1-2.5,6.09A14.07,14.07,0,0,1,73.8,115a17.18,17.18,0,0,1-8.38,1.8,16.82,16.82,0,0,1-10.7-3.35,16,16,0,0,1-5.7-8.61l10.77-3.67a6.38,6.38,0,0,0,1.82,3.24,4.59,4.59,0,0,0,3.24,1.22q3,0,4-2.09a13.19,13.19,0,0,0,1-5.47V64.47H82V98A31.67,31.67,0,0,1,81.36,104.37Z"/><polygon class="cls-7" points="122.96 115.46 104.21 91.98 104.07 91.98 104.07 115.46 92.16 115.46 92.16 64.47 104.07 64.47 104.07 85.21 104.28 85.21 122.32 64.47 137.58 64.47 115.83 87.95 138.87 115.46 122.96 115.46"/><path class="cls-7" d="M80.63,103.68a17.33,17.33,0,0,1-2.5,6.09,14.07,14.07,0,0,1-5.06,4.57,17.18,17.18,0,0,1-8.38,1.8A16.82,16.82,0,0,1,54,112.79a16,16,0,0,1-5.7-8.61l10.77-3.67a6.38,6.38,0,0,0,1.82,3.24A4.59,4.59,0,0,0,64.12,105q3,0,4-2.09a13.19,13.19,0,0,0,1-5.47V63.78H81.31V97.34A31.67,31.67,0,0,1,80.63,103.68Z"/><polygon class="cls-7" points="122.24 114.77 103.48 91.29 103.34 91.29 103.34 114.77 91.43 114.77 91.43 63.78 103.34 63.78 103.34 84.52 103.56 84.52 121.59 63.78 136.85 63.78 115.11 87.26 138.14 114.77 122.24 114.77"/><path class="cls-7" d="M79.9,103a17.33,17.33,0,0,1-2.5,6.09,14.07,14.07,0,0,1-5.06,4.57,17.18,17.18,0,0,1-8.38,1.8,16.82,16.82,0,0,1-10.7-3.35,16,16,0,0,1-5.7-8.61l10.77-3.67a6.38,6.38,0,0,0,1.82,3.24,4.59,4.59,0,0,0,3.24,1.22q3,0,4-2.09a13.19,13.19,0,0,0,1-5.47V63.09H80.58V96.65A31.67,31.67,0,0,1,79.9,103Z"/><polygon class="cls-7" points="121.51 114.08 102.76 90.6 102.61 90.6 102.61 114.08 90.71 114.08 90.71 63.09 102.61 63.09 102.61 83.83 102.83 83.83 120.87 63.09 136.13 63.09 114.38 86.57 137.41 114.08 121.51 114.08"/><path class="cls-7" d="M79.18,102.3a17.33,17.33,0,0,1-2.5,6.09A14.07,14.07,0,0,1,71.62,113a17.18,17.18,0,0,1-8.38,1.8,16.82,16.82,0,0,1-10.7-3.35,16,16,0,0,1-5.7-8.61l10.77-3.67a6.38,6.38,0,0,0,1.82,3.24,4.59,4.59,0,0,0,3.24,1.22q3,0,4-2.09a13.19,13.19,0,0,0,1-5.47V62.4H79.85V96A31.67,31.67,0,0,1,79.18,102.3Z"/><polygon class="cls-7" points="120.78 113.39 102.03 89.91 101.89 89.91 101.89 113.39 89.98 113.39 89.98 62.4 101.89 62.4 101.89 83.14 102.1 83.14 120.14 62.4 135.4 62.4 113.65 85.88 136.68 113.39 120.78 113.39"/><path class="cls-7" d="M78.45,101.61A17.33,17.33,0,0,1,76,107.7a14.07,14.07,0,0,1-5.06,4.57,17.18,17.18,0,0,1-8.38,1.8,16.82,16.82,0,0,1-10.7-3.35,16,16,0,0,1-5.7-8.61l10.77-3.67a6.38,6.38,0,0,0,1.82,3.24,4.59,4.59,0,0,0,3.24,1.22q3,0,4-2.09a13.19,13.19,0,0,0,1-5.47V61.71H79.13V95.27A31.67,31.67,0,0,1,78.45,101.61Z"/><polygon class="cls-7" points="120.06 112.7 101.3 89.22 101.16 89.22 101.16 112.7 89.25 112.7 89.25 61.71 101.16 61.71 101.16 82.45 101.37 82.45 119.41 61.71 134.67 61.71 112.93 85.19 135.96 112.7 120.06 112.7"/><path class="cls-7" d="M77.72,100.92a17.33,17.33,0,0,1-2.5,6.09,14.07,14.07,0,0,1-5.06,4.57,17.18,17.18,0,0,1-8.38,1.8A16.82,16.82,0,0,1,51.09,110a16,16,0,0,1-5.7-8.61l10.77-3.67A6.38,6.38,0,0,0,58,101a4.59,4.59,0,0,0,3.24,1.22q3,0,4-2.09a13.19,13.19,0,0,0,1-5.47V61H78.4V94.58A31.67,31.67,0,0,1,77.72,100.92Z"/><polygon class="cls-7" points="119.33 112.01 100.58 88.53 100.43 88.53 100.43 112.01 88.53 112.01 88.53 61.02 100.43 61.02 100.43 81.77 100.65 81.77 118.69 61.02 133.95 61.02 112.2 84.5 135.23 112.01 119.33 112.01"/><path class="cls-7" d="M77,100.23a17.33,17.33,0,0,1-2.5,6.09,14.07,14.07,0,0,1-5.06,4.57,17.18,17.18,0,0,1-8.38,1.8,16.82,16.82,0,0,1-10.7-3.35,16,16,0,0,1-5.7-8.61l10.77-3.67a6.38,6.38,0,0,0,1.82,3.24,4.59,4.59,0,0,0,3.24,1.22q3,0,4-2.09a13.19,13.19,0,0,0,1-5.47V60.33H77.67V93.89A31.67,31.67,0,0,1,77,100.23Z"/><polygon class="cls-7" points="118.6 111.32 99.85 87.84 99.71 87.84 99.71 111.32 87.8 111.32 87.8 60.33 99.71 60.33 99.71 81.08 99.92 81.08 117.96 60.33 133.22 60.33 111.47 83.81 134.5 111.32 118.6 111.32"/><path class="cls-7" d="M76.27,99.54a17.33,17.33,0,0,1-2.5,6.09,14.07,14.07,0,0,1-5.06,4.57,17.18,17.18,0,0,1-8.38,1.8,16.82,16.82,0,0,1-10.7-3.35,16,16,0,0,1-5.7-8.61L54.7,96.37a6.38,6.38,0,0,0,1.82,3.24,4.59,4.59,0,0,0,3.24,1.22q3,0,4-2.09a13.19,13.19,0,0,0,1-5.47V59.64H76.95V93.21A31.67,31.67,0,0,1,76.27,99.54Z"/><polygon class="cls-7" points="117.87 110.63 99.12 87.16 98.98 87.16 98.98 110.63 87.07 110.63 87.07 59.65 98.98 59.65 98.98 80.39 99.19 80.39 117.23 59.65 132.49 59.65 110.75 83.12 133.78 110.63 117.87 110.63"/><path class="cls-7" d="M75.54,98.85a17.33,17.33,0,0,1-2.5,6.09A14.07,14.07,0,0,1,68,109.51a17.18,17.18,0,0,1-8.38,1.8A16.82,16.82,0,0,1,48.91,108a16,16,0,0,1-5.7-8.61L54,95.68a6.38,6.38,0,0,0,1.82,3.24A4.59,4.59,0,0,0,59,100.15q3,0,4-2.09a13.19,13.19,0,0,0,1-5.47V59H76.22V92.52A31.67,31.67,0,0,1,75.54,98.85Z"/><polygon class="cls-7" points="117.15 109.94 98.39 86.47 98.25 86.47 98.25 109.94 86.34 109.94 86.34 58.95 98.25 58.95 98.25 79.7 98.47 79.7 116.51 58.95 131.77 58.95 110.02 82.43 133.05 109.94 117.15 109.94"/><path class="cls-7" d="M74.81,98.16a17.33,17.33,0,0,1-2.5,6.09,14.07,14.07,0,0,1-5.06,4.57,17.18,17.18,0,0,1-8.38,1.8,16.82,16.82,0,0,1-10.7-3.35,16,16,0,0,1-5.7-8.61L53.24,95a6.38,6.38,0,0,0,1.82,3.24,4.59,4.59,0,0,0,3.24,1.22q3,0,4-2.09a13.19,13.19,0,0,0,1-5.47V58.27H75.49V91.83A31.67,31.67,0,0,1,74.81,98.16Z"/><polygon class="cls-7" points="116.42 109.25 97.67 85.78 97.53 85.78 97.53 109.25 85.62 109.25 85.62 58.27 97.53 58.27 97.53 79.01 97.74 79.01 115.78 58.27 131.04 58.27 109.29 81.74 132.32 109.25 116.42 109.25"/><path class="cls-7" d="M74.09,97.47a17.33,17.33,0,0,1-2.5,6.09,14.07,14.07,0,0,1-5.06,4.57,17.18,17.18,0,0,1-8.38,1.8,16.82,16.82,0,0,1-10.7-3.35A16,16,0,0,1,41.75,98l10.77-3.67a6.38,6.38,0,0,0,1.82,3.24,4.59,4.59,0,0,0,3.24,1.22q3,0,4-2.09a13.19,13.19,0,0,0,1-5.47V57.58H74.77V91.14A31.67,31.67,0,0,1,74.09,97.47Z"/><polygon class="cls-7" points="115.69 108.56 96.94 85.09 96.8 85.09 96.8 108.56 84.89 108.56 84.89 57.58 96.8 57.58 96.8 78.32 97.01 78.32 115.05 57.58 130.31 57.58 108.56 81.05 131.59 108.56 115.69 108.56"/><path class="cls-7" d="M73.36,96.78a17.33,17.33,0,0,1-2.5,6.09,14.07,14.07,0,0,1-5.06,4.57,17.18,17.18,0,0,1-8.38,1.8,16.82,16.82,0,0,1-10.7-3.35A16,16,0,0,1,41,97.29l10.77-3.67a6.38,6.38,0,0,0,1.82,3.24,4.59,4.59,0,0,0,3.24,1.22q3,0,4-2.09a13.19,13.19,0,0,0,1-5.47V56.89H74V90.45A31.67,31.67,0,0,1,73.36,96.78Z"/><polygon class="cls-7" points="114.97 107.88 96.21 84.4 96.07 84.4 96.07 107.88 84.16 107.88 84.16 56.89 96.07 56.89 96.07 77.63 96.28 77.63 114.32 56.89 129.58 56.89 107.84 80.36 130.87 107.88 114.97 107.88"/><path class="cls-7" d="M72.63,96.09a17.33,17.33,0,0,1-2.5,6.09,14.07,14.07,0,0,1-5.06,4.57,17.18,17.18,0,0,1-8.38,1.8A16.82,16.82,0,0,1,46,105.21a16,16,0,0,1-5.7-8.61l10.77-3.67a6.38,6.38,0,0,0,1.82,3.24,4.59,4.59,0,0,0,3.24,1.22q3,0,4-2.09a13.19,13.19,0,0,0,1-5.47V56.2H73.31V89.76A31.67,31.67,0,0,1,72.63,96.09Z"/><polygon class="cls-7" points="114.24 107.19 95.49 83.71 95.34 83.71 95.34 107.19 83.44 107.19 83.44 56.2 95.34 56.2 95.34 76.94 95.56 76.94 113.6 56.2 128.86 56.2 107.11 79.67 130.14 107.19 114.24 107.19"/><path class="cls-7" d="M71.91,95.41a17.33,17.33,0,0,1-2.5,6.09,14.07,14.07,0,0,1-5.06,4.57,17.18,17.18,0,0,1-8.38,1.8,16.82,16.82,0,0,1-10.7-3.35,16,16,0,0,1-5.7-8.61l10.77-3.67a6.38,6.38,0,0,0,1.82,3.24A4.59,4.59,0,0,0,55.4,96.7q3,0,4-2.09a13.19,13.19,0,0,0,1-5.47V55.51H72.58V89.07A31.67,31.67,0,0,1,71.91,95.41Z"/><polygon class="cls-7" points="113.51 106.5 94.76 83.02 94.62 83.02 94.62 106.5 82.71 106.5 82.71 55.51 94.62 55.51 94.62 76.25 94.83 76.25 112.87 55.51 128.13 55.51 106.38 78.98 129.41 106.5 113.51 106.5"/><path class="cls-7" d="M71.18,94.72a17.33,17.33,0,0,1-2.5,6.09,14.07,14.07,0,0,1-5.06,4.57,17.18,17.18,0,0,1-8.38,1.8,16.82,16.82,0,0,1-10.7-3.35,16,16,0,0,1-5.7-8.61l10.77-3.67a6.38,6.38,0,0,0,1.82,3.24A4.59,4.59,0,0,0,54.67,96q3,0,4-2.09a13.19,13.19,0,0,0,1-5.47V54.82H71.86V88.38A31.67,31.67,0,0,1,71.18,94.72Z"/><polygon class="cls-7" points="112.78 105.81 94.03 82.33 93.89 82.33 93.89 105.81 81.98 105.81 81.98 54.82 93.89 54.82 93.89 75.56 94.1 75.56 112.14 54.82 127.4 54.82 105.66 78.3 128.69 105.81 112.78 105.81"/><path class="cls-7" d="M70.45,94a17.33,17.33,0,0,1-2.5,6.09,14.07,14.07,0,0,1-5.06,4.57,17.18,17.18,0,0,1-8.38,1.8,16.82,16.82,0,0,1-10.7-3.35,16,16,0,0,1-5.7-8.61l10.77-3.67A6.38,6.38,0,0,0,50.7,94.1a4.59,4.59,0,0,0,3.24,1.22q3,0,4-2.09a13.19,13.19,0,0,0,1-5.47V54.13H71.13V87.69A31.67,31.67,0,0,1,70.45,94Z"/><polygon class="cls-7" points="112.06 105.12 93.31 81.64 93.16 81.64 93.16 105.12 81.25 105.12 81.25 54.13 93.16 54.13 93.16 74.87 93.38 74.87 111.42 54.13 126.68 54.13 104.93 77.61 127.96 105.12 112.06 105.12"/><path class="cls-7" d="M69.73,93.34a17.33,17.33,0,0,1-2.5,6.09A14.07,14.07,0,0,1,62.17,104a17.18,17.18,0,0,1-8.38,1.8,16.82,16.82,0,0,1-10.7-3.35,16,16,0,0,1-5.7-8.61l10.77-3.67A6.38,6.38,0,0,0,50,93.41a4.59,4.59,0,0,0,3.24,1.22q3,0,4-2.09a13.19,13.19,0,0,0,1-5.47V53.44H70.4V87A31.67,31.67,0,0,1,69.73,93.34Z"/><polygon class="cls-7" points="111.33 104.43 92.58 80.95 92.44 80.95 92.44 104.43 80.53 104.43 80.53 53.44 92.44 53.44 92.44 74.18 92.65 74.18 110.69 53.44 125.95 53.44 104.2 76.92 127.23 104.43 111.33 104.43"/><path class="cls-7" d="M69,92.65a17.33,17.33,0,0,1-2.5,6.09,14.07,14.07,0,0,1-5.06,4.57,17.18,17.18,0,0,1-8.38,1.8,16.82,16.82,0,0,1-10.7-3.35,16,16,0,0,1-5.7-8.61l10.77-3.67a6.38,6.38,0,0,0,1.82,3.24,4.59,4.59,0,0,0,3.24,1.22q3,0,4-2.09a13.19,13.19,0,0,0,1-5.47V52.75H69.68V86.31A31.67,31.67,0,0,1,69,92.65Z"/><polygon class="cls-7" points="110.6 103.74 91.85 80.26 91.71 80.26 91.71 103.74 79.8 103.74 79.8 52.75 91.71 52.75 91.71 73.49 91.92 73.49 109.96 52.75 125.22 52.75 103.47 76.23 126.5 103.74 110.6 103.74"/><path class="cls-7" d="M68.27,92A17.33,17.33,0,0,1,65.78,98a14.07,14.07,0,0,1-5.06,4.57,17.18,17.18,0,0,1-8.38,1.8,16.82,16.82,0,0,1-10.7-3.35,16,16,0,0,1-5.7-8.61L46.7,88.79A6.38,6.38,0,0,0,48.52,92a4.59,4.59,0,0,0,3.24,1.22q3,0,4-2.09a13.19,13.19,0,0,0,1-5.47V52.06H68.95V85.62A31.67,31.67,0,0,1,68.27,92Z"/><polygon class="cls-7" points="109.88 103.05 91.12 79.57 90.98 79.57 90.98 103.05 79.07 103.05 79.07 52.06 90.98 52.06 90.98 72.8 91.19 72.8 109.23 52.06 124.5 52.06 102.75 75.54 125.78 103.05 109.88 103.05"/><path class="cls-7" d="M67.54,91.27A17.33,17.33,0,0,1,65,97.35,14.07,14.07,0,0,1,60,101.93a17.18,17.18,0,0,1-8.38,1.8,16.82,16.82,0,0,1-10.7-3.35,16,16,0,0,1-5.7-8.61L46,88.1a6.38,6.38,0,0,0,1.82,3.24A4.59,4.59,0,0,0,51,92.57q3,0,4-2.09A13.19,13.19,0,0,0,56,85V51.37H68.22V84.93A31.67,31.67,0,0,1,67.54,91.27Z"/><polygon class="cls-7" points="109.15 102.36 90.4 78.88 90.25 78.88 90.25 102.36 78.35 102.36 78.35 51.37 90.25 51.37 90.25 72.11 90.47 72.11 108.51 51.37 123.77 51.37 102.02 74.85 125.05 102.36 109.15 102.36"/><path class="cls-7" d="M66.82,90.58a17.33,17.33,0,0,1-2.5,6.09,14.07,14.07,0,0,1-5.06,4.57,17.18,17.18,0,0,1-8.38,1.8,16.82,16.82,0,0,1-10.7-3.35,16,16,0,0,1-5.7-8.61l10.77-3.67a6.38,6.38,0,0,0,1.82,3.24,4.59,4.59,0,0,0,3.24,1.22q3,0,4-2.09a13.19,13.19,0,0,0,1-5.47V50.68H67.49V84.24A31.67,31.67,0,0,1,66.82,90.58Z"/><polygon class="cls-7" points="108.42 101.67 89.67 78.19 89.53 78.19 89.53 101.67 77.62 101.67 77.62 50.68 89.53 50.68 89.53 71.42 89.74 71.42 107.78 50.68 123.04 50.68 101.29 74.16 124.32 101.67 108.42 101.67"/><path class="cls-7" d="M66.09,89.89A17.33,17.33,0,0,1,63.59,96a14.07,14.07,0,0,1-5.06,4.57,17.18,17.18,0,0,1-8.38,1.8A16.82,16.82,0,0,1,39.46,99a16,16,0,0,1-5.7-8.61l10.77-3.67A6.38,6.38,0,0,0,46.34,90a4.59,4.59,0,0,0,3.24,1.22q3,0,4-2.09a13.19,13.19,0,0,0,1-5.47V50H66.77V83.55A31.67,31.67,0,0,1,66.09,89.89Z"/><polygon class="cls-7" points="107.69 100.98 88.94 77.5 88.8 77.5 88.8 100.98 76.89 100.98 76.89 49.99 88.8 49.99 88.8 70.73 89.01 70.73 107.05 49.99 122.31 49.99 100.56 73.47 123.6 100.98 107.69 100.98"/><path class="cls-7" d="M65.36,89.2a17.33,17.33,0,0,1-2.5,6.09,14.07,14.07,0,0,1-5.06,4.57,17.18,17.18,0,0,1-8.38,1.8,16.82,16.82,0,0,1-10.7-3.35A16,16,0,0,1,33,89.7L43.79,86a6.38,6.38,0,0,0,1.82,3.24,4.59,4.59,0,0,0,3.24,1.22q3,0,4-2.09a13.19,13.19,0,0,0,1-5.47V49.3H66V82.86A31.67,31.67,0,0,1,65.36,89.2Z"/><polygon class="cls-7" points="106.97 100.29 88.22 76.81 88.07 76.81 88.07 100.29 76.16 100.29 76.16 49.3 88.07 49.3 88.07 70.04 88.29 70.04 106.33 49.3 121.59 49.3 99.84 72.78 122.87 100.29 106.97 100.29"/><path class="cls-7" d="M64.64,88.51a17.33,17.33,0,0,1-2.5,6.09,14.07,14.07,0,0,1-5.06,4.57A17.18,17.18,0,0,1,48.7,101,16.82,16.82,0,0,1,38,97.62,16,16,0,0,1,32.3,89l10.77-3.67a6.38,6.38,0,0,0,1.82,3.24,4.59,4.59,0,0,0,3.24,1.22q3,0,4-2.09a13.19,13.19,0,0,0,1-5.47V48.61H65.31V82.17A31.67,31.67,0,0,1,64.64,88.51Z"/><polygon class="cls-7" points="106.24 99.6 87.49 76.12 87.34 76.12 87.34 99.6 75.44 99.6 75.44 48.61 87.34 48.61 87.34 69.35 87.56 69.35 105.6 48.61 120.86 48.61 99.11 72.09 122.14 99.6 106.24 99.6"/><path class="cls-7" d="M63.91,87.82a17.33,17.33,0,0,1-2.5,6.09,14.07,14.07,0,0,1-5.06,4.57,17.18,17.18,0,0,1-8.38,1.8,16.82,16.82,0,0,1-10.7-3.35,16,16,0,0,1-5.7-8.61l10.77-3.67a6.38,6.38,0,0,0,1.82,3.24,4.59,4.59,0,0,0,3.24,1.22q3,0,4-2.09a13.19,13.19,0,0,0,1-5.47V47.92H64.59V81.48A31.67,31.67,0,0,1,63.91,87.82Z"/><polygon class="cls-7" points="105.51 98.91 86.76 75.43 86.62 75.43 86.62 98.91 74.71 98.91 74.71 47.92 86.62 47.92 86.62 68.67 86.83 68.67 104.87 47.92 120.13 47.92 98.38 71.4 121.42 98.91 105.51 98.91"/><path class="cls-7" d="M63.18,87.13a17.33,17.33,0,0,1-2.5,6.09,14.07,14.07,0,0,1-5.06,4.57,17.18,17.18,0,0,1-8.38,1.8,16.82,16.82,0,0,1-10.7-3.35,16,16,0,0,1-5.7-8.61L41.61,84a6.38,6.38,0,0,0,1.82,3.24,4.59,4.59,0,0,0,3.24,1.22q3,0,4-2.09a13.19,13.19,0,0,0,1-5.47V47.23H63.86V80.79A31.67,31.67,0,0,1,63.18,87.13Z"/><polygon class="cls-7" points="104.79 98.22 86.03 74.75 85.89 74.75 85.89 98.22 73.98 98.22 73.98 47.23 85.89 47.23 85.89 67.97 86.11 67.97 104.14 47.23 119.41 47.23 97.66 70.71 120.69 98.22 104.79 98.22"/><path class="cls-7" d="M62.45,86.44A17.33,17.33,0,0,1,60,92.53,14.07,14.07,0,0,1,54.9,97.1a17.18,17.18,0,0,1-8.38,1.8,16.82,16.82,0,0,1-10.7-3.35,16,16,0,0,1-5.7-8.61l10.77-3.67a6.38,6.38,0,0,0,1.82,3.24,4.59,4.59,0,0,0,3.24,1.22q3,0,4-2.09a13.19,13.19,0,0,0,1-5.47V46.54H63.13V80.1A31.67,31.67,0,0,1,62.45,86.44Z"/><polygon class="cls-7" points="104.06 97.53 85.31 74.06 85.16 74.06 85.16 97.53 73.26 97.53 73.26 46.55 85.16 46.55 85.16 67.29 85.38 67.29 103.42 46.55 118.68 46.55 96.93 70.02 119.96 97.53 104.06 97.53"/><path class="cls-7" d="M61.73,85.75a17.33,17.33,0,0,1-2.5,6.09,14.07,14.07,0,0,1-5.06,4.57,17.18,17.18,0,0,1-8.38,1.8,16.82,16.82,0,0,1-10.7-3.35,16,16,0,0,1-5.7-8.61l10.77-3.67A6.38,6.38,0,0,0,42,85.82,4.59,4.59,0,0,0,45.22,87q3,0,4-2.09a13.19,13.19,0,0,0,1-5.47V45.86H62.4V79.42A31.67,31.67,0,0,1,61.73,85.75Z"/><polygon class="cls-7" points="103.33 96.84 84.58 73.37 84.44 73.37 84.44 96.84 72.53 96.84 72.53 45.85 84.44 45.85 84.44 66.6 84.65 66.6 102.69 45.85 117.95 45.85 96.2 69.33 119.23 96.84 103.33 96.84"/><path class="cls-7" d="M61,85.06a17.33,17.33,0,0,1-2.5,6.09,14.07,14.07,0,0,1-5.06,4.57,17.18,17.18,0,0,1-8.38,1.8,16.82,16.82,0,0,1-10.7-3.35,16,16,0,0,1-5.7-8.61l10.77-3.67a6.38,6.38,0,0,0,1.82,3.24,4.59,4.59,0,0,0,3.24,1.22q3,0,4-2.09a13.19,13.19,0,0,0,1-5.47V45.17H61.68V78.73A31.67,31.67,0,0,1,61,85.06Z"/><polygon class="cls-7" points="102.61 96.15 83.85 72.68 83.71 72.68 83.71 96.15 71.8 96.15 71.8 45.17 83.71 45.17 83.71 65.91 83.92 65.91 101.96 45.17 117.22 45.17 95.48 68.64 118.51 96.15 102.61 96.15"/><path class="cls-7" d="M60.27,84.37a17.33,17.33,0,0,1-2.5,6.09A14.07,14.07,0,0,1,52.71,95a17.18,17.18,0,0,1-8.38,1.8,16.82,16.82,0,0,1-10.7-3.35,16,16,0,0,1-5.7-8.61L38.7,81.21a6.38,6.38,0,0,0,1.82,3.24,4.59,4.59,0,0,0,3.24,1.22q3,0,4-2.09a13.19,13.19,0,0,0,1-5.47V44.48H61V78A31.67,31.67,0,0,1,60.27,84.37Z"/><polygon class="cls-7" points="101.88 95.46 83.13 71.99 82.98 71.99 82.98 95.46 71.08 95.46 71.08 44.48 82.98 44.48 82.98 65.22 83.2 65.22 101.24 44.48 116.5 44.48 94.75 67.95 117.78 95.46 101.88 95.46"/><path class="cls-7" d="M59.55,83.68a17.33,17.33,0,0,1-2.5,6.09A14.07,14.07,0,0,1,52,94.34a17.18,17.18,0,0,1-8.38,1.8,16.82,16.82,0,0,1-10.7-3.35,16,16,0,0,1-5.7-8.61L38,80.52a6.38,6.38,0,0,0,1.82,3.24A4.59,4.59,0,0,0,43,85q3,0,4-2.09a13.19,13.19,0,0,0,1-5.47V43.79H60.22V77.35A31.67,31.67,0,0,1,59.55,83.68Z"/><polygon class="cls-7" points="101.15 94.78 82.4 71.3 82.26 71.3 82.26 94.78 70.35 94.78 70.35 43.79 82.26 43.79 82.26 64.53 82.47 64.53 100.51 43.79 115.77 43.79 94.02 67.26 117.05 94.78 101.15 94.78"/><path class="cls-7" d="M58.82,83a17.33,17.33,0,0,1-2.5,6.09,14.07,14.07,0,0,1-5.06,4.57,17.18,17.18,0,0,1-8.38,1.8,16.82,16.82,0,0,1-10.7-3.35,16,16,0,0,1-5.7-8.61l10.77-3.67a6.38,6.38,0,0,0,1.82,3.24,4.59,4.59,0,0,0,3.24,1.22q3,0,4-2.09a13.19,13.19,0,0,0,1-5.47V43.1H59.5V76.66A31.67,31.67,0,0,1,58.82,83Z"/><polygon class="cls-7" points="100.42 94.08 81.67 70.61 81.53 70.61 81.53 94.08 69.62 94.08 69.62 43.1 81.53 43.1 81.53 63.84 81.74 63.84 99.78 43.1 115.04 43.1 93.29 66.58 116.33 94.08 100.42 94.08"/><path class="cls-7" d="M58.09,82.31a17.33,17.33,0,0,1-2.5,6.09A14.07,14.07,0,0,1,50.53,93a17.18,17.18,0,0,1-8.38,1.8,16.82,16.82,0,0,1-10.7-3.35,16,16,0,0,1-5.7-8.61l10.77-3.67a6.38,6.38,0,0,0,1.82,3.24,4.59,4.59,0,0,0,3.24,1.22q3,0,4-2.09a13.19,13.19,0,0,0,1-5.47V42.41H58.77V76A31.67,31.67,0,0,1,58.09,82.31Z"/><polygon class="cls-7" points="99.7 93.4 80.94 69.92 80.8 69.92 80.8 93.4 68.89 93.4 68.89 42.41 80.8 42.41 80.8 63.15 81.02 63.15 99.06 42.41 114.31 42.41 92.57 65.89 115.6 93.4 99.7 93.4"/><path class="cls-7" d="M57.36,81.62a17.33,17.33,0,0,1-2.5,6.09,14.07,14.07,0,0,1-5.06,4.57,17.18,17.18,0,0,1-8.38,1.8,16.82,16.82,0,0,1-10.7-3.35A16,16,0,0,1,25,82.12l10.77-3.67a6.38,6.38,0,0,0,1.82,3.24,4.59,4.59,0,0,0,3.24,1.22q3,0,4-2.09a13.19,13.19,0,0,0,1-5.47V41.72H58V75.28A31.67,31.67,0,0,1,57.36,81.62Z"/><polygon class="cls-7" points="98.97 92.71 80.22 69.23 80.07 69.23 80.07 92.71 68.17 92.71 68.17 41.72 80.07 41.72 80.07 62.46 80.29 62.46 98.33 41.72 113.59 41.72 91.84 65.2 114.87 92.71 98.97 92.71"/><path class="cls-7" d="M56.64,80.93A17.33,17.33,0,0,1,54.14,87a14.07,14.07,0,0,1-5.06,4.57,17.18,17.18,0,0,1-8.38,1.8A16.82,16.82,0,0,1,30,90a16,16,0,0,1-5.7-8.61l10.77-3.67A6.38,6.38,0,0,0,36.89,81a4.59,4.59,0,0,0,3.24,1.22q3,0,4-2.09a13.19,13.19,0,0,0,1-5.47V41H57.31V74.59A31.67,31.67,0,0,1,56.64,80.93Z"/><polygon class="cls-7" points="98.24 92.02 79.49 68.54 79.35 68.54 79.35 92.02 67.44 92.02 67.44 41.03 79.35 41.03 79.35 61.77 79.56 61.77 97.6 41.03 112.86 41.03 91.11 64.51 114.14 92.02 98.24 92.02"/><text class="cls-5" transform="translate(23.79 91.33) scale(0.99 1)">J<tspan class="cls-6" x="38.1" y="0">K</tspan></text><text class="cls-8" transform="translate(23.79 91.33) scale(0.99 1)">J<tspan class="cls-6" x="38.1" y="0">K</tspan></text></g></svg>