<svg id="Layer_1" data-name="Layer 1" xmlns="http://www.w3.org/2000/svg" viewBox="0 0 300 37"><defs><style>.cls-1,.cls-2{fill:#474747;}.cls-2{font-size:24px;font-family:Hatterline, Hatterline;}</style></defs><title>theWholeEnchilada</title><path class="cls-1" d="M241.05,28.9c.73,4.58,8.88,5.6,12.34,6.2a54.73,54.73,0,0,0,22.71-.84c8.41-2.09,16.26-5.48,20.46-13.52,3.89-7.45-1-13.4-7.09-17.43-1.61-1.07-3.12,1.53-1.51,2.59,3.43,2.27,6.74,4.78,6.85,9.21.09,3.75-2.45,7.12-5,9.69-4.77,4.75-13.11,6.61-19.61,7.6a49.14,49.14,0,0,1-15.38-.09c-2.31-.37-10.36-1.22-10.84-4.2-.3-1.9-3.19-1.09-2.89.8Z"/><path class="cls-1" d="M286.05,3.9a15.5,15.5,0,0,1-.59,7.84l.69-.9,0,0,2.26,1.3V12l-.44,1.06L288,13c1.21-1.48-.9-3.62-2.12-2.12a1.87,1.87,0,0,0-.53,1.29,1.52,1.52,0,0,0,2.26,1.3c1.26-.66,1.37-3.31,1.53-4.52a17.13,17.13,0,0,0-.21-5.84c-.4-1.89-3.29-1.09-2.89.8Z"/><path class="cls-1" d="M287.49,4.66A56,56,0,0,0,298,6.48c1.92.15,1.91-2.85,0-3a51.73,51.73,0,0,1-9.67-1.72,1.5,1.5,0,0,0-.8,2.89Z"/><text class="cls-2" transform="translate(101.42 30.39) rotate(-2.57)">The Whole Enchilada</text></svg>